<?xml version="1.0" encoding="utf-8"?>
<!-- Generator: Adobe Illustrator 23.0.6, SVG Export Plug-In . SVG Version: 6.00 Build 0)  -->
<svg version="1.1" id="Ebene_1" xmlns="http://www.w3.org/2000/svg" xmlns:xlink="http://www.w3.org/1999/xlink" x="0px" y="0px"
	 viewBox="0 0 481.9 196.7" style="enable-background:new 0 0 481.9 196.7;" xml:space="preserve">
<style type="text/css">
	.st0{fill-rule:evenodd;clip-rule:evenodd;fill:#00847E;}
</style>
<g>
	<polygon class="st0" points="301,21.3 277.9,61.7 301,112 271.7,112 253,67.4 253,112 227,112 227,21.3 253,21.3 253,58.3 
		271.7,21.3 301,21.3 	"/>
	<polygon class="st0" points="334.2,21.3 334.2,92.3 364,92.3 364,112 308.2,112 308.2,21.3 334.2,21.3 	"/>
	<path class="st0" d="M402.5,21.3v85c0,4.8-0.2,8.7-0.5,11.8c-0.3,3.1-1.2,6.1-2.5,9c-2.4,4.7-6,8.3-10.8,10.7
		c-4.8,2.4-10,3.6-15.6,3.6c-0.2,0-0.6,0-1.2-0.1c-0.5,0-1-0.1-1.2-0.1l-6.8-23c0.4,0.1,0.9,0.2,1.8,0.2c3.4,0,5.8-0.9,7.4-2.6
		c1.6-1.7,2.6-3.7,2.9-6.1c0.3-2.4,0.5-5.5,0.5-9.3V21.3H402.5L402.5,21.3z"/>
	<path class="st0" d="M415.1,21.3h32.2c9.3,0,16.1,1,20.3,2.9c3.8,1.8,6.7,4.7,8.8,8.6c2,3.9,3.1,8.2,3.1,12.7
		c0,8.4-3.6,14.7-10.9,19c8.9,4.3,13.4,11.4,13.4,21.4c0,4.7-1.2,9.3-3.7,13.6c-2.5,4.4-5.8,7.5-10,9.5c-3,1.3-6.1,2.1-9.5,2.5
		c-3.3,0.3-7.5,0.5-12.5,0.5h-31.1V21.3L415.1,21.3z M441.1,39.2v18.6l2,0.1c3.7,0,6.4-0.7,8.1-2.2c1.7-1.5,2.6-3.9,2.6-7.5
		c0-3.8-0.8-6.3-2.5-7.4c-1.7-1.1-4.5-1.7-8.5-1.7H441.1L441.1,39.2z M441.1,74.3v19.9h2.3c4.1,0,6.9-0.6,8.4-1.9
		c2.2-1.8,3.3-4.5,3.3-8c0-4.4-1.5-7.4-4.4-9c-1.4-0.6-3.6-1-6.8-1H441.1L441.1,74.3z"/>
	<path class="st0" d="M227.1,139.5v-20.1h2.6v20.1H227.1L227.1,139.5z M233.4,139.5l-3.6-10.2l2.8-9.9h2.6l-3.2,9.6l3.9,10.5H233.4
		L233.4,139.5z"/>
	<path class="st0" d="M245.5,137v1.8c-0.8,0.7-1.4,1-1.8,1c-0.9,0-1.4-0.6-1.7-1.7c-0.8,1.2-1.7,1.7-2.6,1.7c-0.7,0-1.3-0.3-1.8-1
		c-0.5-0.7-0.8-1.5-0.8-2.4c0-0.6,0.1-1.2,0.4-1.7c0.3-0.5,0.7-1,1.1-1.4c0.5-0.4,1-0.8,1.6-1.2c0.6-0.4,1.3-0.8,1.9-1.2v-1.3
		c0-1.2-0.5-1.7-1.4-1.7c-1,0-2.1,0.7-3.4,2.2v-2.7c0.7-0.7,1.3-1.1,1.8-1.3c0.5-0.2,1.1-0.4,1.8-0.4c1.3,0,2.2,0.4,2.8,1.2
		c0.5,0.8,0.8,1.7,0.8,2.5v7.3c0,0.6,0.1,0.8,0.3,0.8C244.7,137.7,245,137.4,245.5,137L245.5,137z M241.9,136.1v-3.4
		c-1,0.6-1.7,1.2-2.1,1.7c-0.4,0.6-0.7,1.1-0.7,1.8c0,0.4,0.1,0.8,0.3,1.1c0.2,0.3,0.5,0.4,0.8,0.4c0.3,0,0.5-0.1,0.8-0.4
		C241.5,136.9,241.7,136.6,241.9,136.1L241.9,136.1z"/>
	<path class="st0" d="M252.4,137.2v2.1c-0.8,0.3-1.5,0.5-2.1,0.5c-0.6,0-1.1-0.1-1.5-0.3c-0.4-0.2-0.6-0.6-0.7-1.2
		c-0.1-0.5-0.2-1.3-0.2-2.4v-7.8h-1.6l3.9-5.6v3.5h2.2v2h-2.2v7.6c0,0.7,0.1,1.2,0.2,1.4c0.1,0.2,0.4,0.4,0.8,0.4
		C251.5,137.6,251.9,137.5,252.4,137.2L252.4,137.2z"/>
	<path class="st0" d="M254.2,139.5v-20.1h2.3v8.1h0.1c0.4-0.6,0.7-1.1,1.1-1.3c0.4-0.3,0.9-0.4,1.4-0.4c1.1,0,1.9,0.4,2.3,1.3
		c0.4,0.9,0.6,1.8,0.6,2.9v9.4h-2.3v-8.6c0-0.9,0-1.5-0.1-1.9c-0.1-0.4-0.2-0.7-0.4-0.8c-0.2-0.2-0.4-0.2-0.8-0.2
		c-0.7,0-1.4,0.5-1.9,1.6v10H254.2L254.2,139.5z"/>
	<path class="st0" d="M264.3,132.9c0-1.5,0.2-2.8,0.5-3.8c0.3-1.1,0.8-1.9,1.4-2.5c0.6-0.6,1.4-0.9,2.2-0.9c0.9,0,1.6,0.3,2.2,0.9
		c0.6,0.6,1.1,1.4,1.4,2.5c0.3,1.1,0.5,2.4,0.5,3.8c0,1.4-0.2,2.6-0.5,3.6c-0.3,1-0.8,1.9-1.5,2.4c-0.6,0.6-1.4,0.9-2.2,0.9
		c-0.8,0-1.6-0.3-2.2-0.9c-0.6-0.6-1.1-1.4-1.5-2.4C264.5,135.5,264.3,134.3,264.3,132.9L264.3,132.9z M266.7,133
		c0,1.4,0.2,2.5,0.5,3.3c0.3,0.8,0.8,1.2,1.3,1.2c0.5,0,1-0.4,1.3-1.2c0.3-0.8,0.5-1.9,0.5-3.4c0-3.3-0.6-4.9-1.8-4.9
		C267.3,128.1,266.7,129.7,266.7,133L266.7,133z"/>
	<polygon class="st0" points="275.2,139.5 275.2,119.4 277.5,119.4 277.5,139.5 275.2,139.5 	"/>
	<path class="st0" d="M280.5,139.5v-13.3h2.3v13.3H280.5L280.5,139.5z M280.3,120.5c0-0.4,0.1-0.7,0.4-0.9s0.6-0.4,1-0.4
		c0.4,0,0.7,0.1,1,0.4c0.3,0.3,0.4,0.6,0.4,1c0,0.4-0.1,0.7-0.4,1c-0.3,0.3-0.6,0.4-1,0.4c-0.4,0-0.7-0.1-0.9-0.4
		C280.4,121.2,280.3,120.8,280.3,120.5L280.3,120.5z"/>
	<path class="st0" d="M285.2,138.8v-2.6c0.9,1,1.7,1.5,2.3,1.5c0.3,0,0.6-0.1,0.8-0.3c0.2-0.2,0.3-0.5,0.3-0.8
		c0-0.4-0.1-0.8-0.3-1.2c-0.2-0.4-0.6-1.1-1.2-2s-1-1.7-1.3-2.3c-0.3-0.6-0.4-1.3-0.4-1.9c0-0.9,0.3-1.7,0.8-2.3
		c0.5-0.6,1.2-0.9,2.1-0.9c0.7,0,1.5,0.3,2.2,0.8v2.2c-0.7-0.6-1.4-0.9-2-0.9c-0.3,0-0.5,0.1-0.7,0.3c-0.2,0.2-0.3,0.4-0.3,0.7
		c0,0.5,0.4,1.3,1.3,2.6c0.8,1.2,1.4,2.1,1.8,2.7c0.3,0.6,0.5,1.3,0.5,2.2c0,1-0.3,1.8-0.9,2.5c-0.6,0.7-1.3,1-2.3,1
		C287,139.8,286.1,139.5,285.2,138.8L285.2,138.8z"/>
	<path class="st0" d="M299.8,136.9v2.3c-0.8,0.5-1.5,0.7-2.3,0.7c-0.9,0-1.7-0.3-2.5-0.9c-0.7-0.6-1.3-1.4-1.7-2.5
		c-0.4-1.1-0.6-2.2-0.6-3.6c0-1.4,0.2-2.6,0.6-3.7c0.4-1.1,1-1.9,1.7-2.6c0.7-0.6,1.5-0.9,2.5-0.9c0.7,0,1.4,0.2,2.1,0.5v2.4
		c-0.7-0.4-1.3-0.6-1.7-0.6c-0.8,0-1.5,0.4-2,1.3c-0.5,0.9-0.7,2-0.7,3.5c0,1.4,0.3,2.6,0.8,3.4c0.5,0.9,1.2,1.3,2.1,1.3
		c0.3,0,0.6,0,0.8-0.1C299.2,137.3,299.5,137.1,299.8,136.9L299.8,136.9z"/>
	<path class="st0" d="M301.7,139.5v-20.1h2.3v8.1h0.1c0.4-0.6,0.7-1.1,1.1-1.3c0.4-0.3,0.9-0.4,1.4-0.4c1.1,0,1.9,0.4,2.3,1.3
		c0.4,0.9,0.6,1.8,0.6,2.9v9.4h-2.3v-8.6c0-0.9,0-1.5-0.1-1.9c-0.1-0.4-0.2-0.7-0.4-0.8c-0.2-0.2-0.4-0.2-0.8-0.2
		c-0.7,0-1.4,0.5-1.9,1.6v10H301.7L301.7,139.5z"/>
	<path class="st0" d="M318.8,136.4v2.3c-0.9,0.8-1.8,1.2-2.7,1.2c-0.9,0-1.6-0.3-2.3-0.8c-0.6-0.6-1.1-1.4-1.5-2.4
		c-0.3-1.1-0.5-2.3-0.5-3.8c0-2.2,0.3-3.9,1-5.1c0.7-1.2,1.6-1.8,2.7-1.8c0.8,0,1.5,0.3,2,0.8c0.5,0.5,0.9,1.2,1.1,2
		c0.2,0.8,0.4,1.6,0.4,2.3c0,0.7,0.1,1.5,0.1,2.4h-4.9c0,1.5,0.2,2.6,0.6,3.3c0.4,0.7,1,1.1,1.8,1.1
		C317.4,137.7,318.1,137.2,318.8,136.4L318.8,136.4z M314.1,131.6h2.6c0-1.3-0.1-2.3-0.3-2.9c-0.2-0.6-0.6-0.9-1.1-0.9
		C314.6,127.8,314.2,129.1,314.1,131.6L314.1,131.6z"/>
	<polygon class="st0" points="227.1,167.9 227.1,147.8 229.7,147.8 229.7,165.5 234.6,165.5 234.6,167.9 227.1,167.9 	"/>
	<path class="st0" d="M244.3,165.4v1.8c-0.8,0.7-1.4,1-1.8,1c-0.9,0-1.4-0.6-1.7-1.7c-0.8,1.2-1.7,1.7-2.6,1.7c-0.7,0-1.3-0.3-1.8-1
		c-0.5-0.7-0.8-1.5-0.8-2.4c0-0.6,0.1-1.2,0.4-1.7c0.3-0.5,0.7-1,1.1-1.4c0.5-0.4,1-0.8,1.6-1.2c0.6-0.4,1.3-0.8,1.9-1.2v-1.3
		c0-1.2-0.5-1.7-1.4-1.7c-1,0-2.1,0.7-3.4,2.2v-2.7c0.7-0.7,1.3-1.1,1.8-1.3s1.1-0.4,1.8-0.4c1.3,0,2.2,0.4,2.8,1.2
		c0.5,0.8,0.8,1.7,0.8,2.5v7.3c0,0.6,0.1,0.8,0.3,0.8C243.5,166.1,243.8,165.9,244.3,165.4L244.3,165.4z M240.7,164.5v-3.4
		c-1,0.6-1.7,1.2-2.1,1.7c-0.4,0.6-0.7,1.1-0.7,1.8c0,0.4,0.1,0.8,0.3,1.1c0.2,0.3,0.5,0.4,0.8,0.4c0.3,0,0.5-0.1,0.8-0.4
		C240.2,165.3,240.5,165,240.7,164.5L240.7,164.5z"/>
	<path class="st0" d="M246.1,167.9v-13.3h2.3v1.5c0.7-1.2,1.6-1.7,2.6-1.7c1.1,0,1.9,0.4,2.3,1.3c0.4,0.9,0.6,1.7,0.6,2.6v9.6h-2.3
		v-8.5c0-0.9,0-1.5-0.1-1.9c-0.1-0.4-0.2-0.7-0.3-0.9c-0.2-0.2-0.4-0.2-0.8-0.2c-0.7,0-1.3,0.5-1.9,1.6v9.9H246.1L246.1,167.9z"/>
	<path class="st0" d="M264.5,167.9h-2.3v-1h-0.1c-0.6,0.8-1.3,1.2-2.2,1.2c-0.7,0-1.3-0.3-1.9-0.9c-0.6-0.6-1-1.4-1.4-2.4
		c-0.3-1-0.5-2.2-0.5-3.4c0-1.4,0.2-2.7,0.5-3.8c0.3-1.1,0.8-1.9,1.4-2.5c0.6-0.6,1.2-0.9,2-0.9c0.8,0,1.5,0.4,2.1,1.1v-7.5h2.3
		V167.9L264.5,167.9z M262.2,164.5v-6.9c-0.3-0.9-0.9-1.3-1.5-1.3c-0.6,0-1.1,0.4-1.5,1.3c-0.4,0.9-0.5,2.1-0.5,3.6
		c0,1.4,0.2,2.6,0.5,3.3c0.3,0.8,0.8,1.2,1.4,1.2C261.2,165.8,261.7,165.4,262.2,164.5L262.2,164.5z"/>
	<path class="st0" d="M265.7,175.1v-2.3c0.6-0.1,1-0.4,1.2-0.8c0.2-0.4,0.3-1.1,0.3-2.2v-15.3h2.3v14.9c0,1.5-0.2,2.8-0.7,3.8
		C268.4,174.3,267.3,174.9,265.7,175.1L265.7,175.1z M266.9,148.9c0-0.4,0.1-0.7,0.4-1c0.3-0.3,0.6-0.4,1-0.4c0.4,0,0.7,0.1,1,0.4
		c0.3,0.3,0.4,0.6,0.4,1c0,0.4-0.1,0.7-0.4,1c-0.3,0.3-0.6,0.4-1,0.4c-0.4,0-0.7-0.1-1-0.4C267,149.6,266.9,149.2,266.9,148.9
		L266.9,148.9z"/>
	<path class="st0" d="M280,154.6v13.3h-2.3v-1.4h-0.1c-0.4,0.6-0.7,1.1-1.1,1.3c-0.4,0.2-0.8,0.4-1.3,0.4c-1.2,0-2-0.4-2.4-1.3
		c-0.4-0.8-0.6-1.7-0.6-2.7v-9.6h2.3v8.5c0,0.9,0,1.5,0.1,1.9c0.1,0.4,0.2,0.7,0.3,0.8c0.2,0.2,0.4,0.2,0.8,0.2
		c0.7,0,1.4-0.5,1.9-1.6v-9.9H280L280,154.6z"/>
	<path class="st0" d="M291,156.6h-1.8c0.5,0.8,0.8,1.9,0.8,3.1c0,1.6-0.3,2.8-1,3.6c-0.7,0.8-1.4,1.2-2.2,1.4
		c-0.6,0.1-1.1,0.2-1.3,0.3c-0.3,0.1-0.4,0.4-0.4,0.7c0,0.3,0.1,0.5,0.2,0.6c0.1,0.1,0.3,0.2,0.6,0.3c0.2,0.1,0.9,0.2,2,0.5
		c0.8,0.2,1.6,0.6,2.2,1.2c0.6,0.6,1,1.5,1,2.6c0,0.8-0.2,1.5-0.6,2.2c-0.4,0.6-0.9,1.1-1.6,1.5c-0.7,0.4-1.4,0.5-2.3,0.5
		c-0.9,0-1.7-0.2-2.4-0.5c-0.7-0.3-1.2-0.8-1.6-1.3c-0.4-0.6-0.6-1.2-0.6-1.9c0-0.7,0.2-1.4,0.6-1.9c0.4-0.6,1-1,1.7-1.3
		c-1-0.5-1.5-1.1-1.5-1.9c0-1,0.6-1.7,1.9-2.2c-1.4-1-2-2.5-2-4.5c0-1.5,0.3-2.7,1-3.7c0.7-0.9,1.7-1.4,3.2-1.4h4.3V156.6L291,156.6
		z M284.6,159.7c0,1,0.1,1.8,0.4,2.4c0.3,0.6,0.7,0.9,1.2,0.9c0.5,0,0.8-0.3,1.1-0.9c0.3-0.6,0.4-1.3,0.4-2.2c0-1.1-0.1-1.9-0.4-2.6
		c-0.3-0.6-0.6-0.9-1.1-0.9c-0.5,0-0.9,0.3-1.2,0.9C284.8,157.8,284.6,158.6,284.6,159.7L284.6,159.7z M284,171.3
		c0,0.6,0.2,1.1,0.7,1.4c0.4,0.4,1,0.5,1.8,0.5c0.7,0,1.2-0.2,1.7-0.6c0.5-0.4,0.7-0.9,0.7-1.5c0-0.6-0.2-1-0.7-1.5
		c-0.5-0.4-1.1-0.6-1.8-0.6c-0.7,0-1.2,0.2-1.6,0.6C284.2,170.1,284,170.6,284,171.3L284,171.3z"/>
	<path class="st0" d="M299.3,164.8v2.3c-0.9,0.8-1.8,1.2-2.7,1.2c-0.9,0-1.6-0.3-2.3-0.8c-0.6-0.6-1.1-1.4-1.5-2.4
		c-0.3-1.1-0.5-2.3-0.5-3.8c0-2.2,0.3-3.9,1-5.1c0.7-1.2,1.6-1.8,2.7-1.8c0.8,0,1.5,0.3,2,0.8c0.5,0.5,0.9,1.2,1.1,2
		c0.2,0.8,0.4,1.6,0.4,2.3c0,0.7,0.1,1.5,0.1,2.4h-4.9c0,1.5,0.2,2.6,0.6,3.3c0.4,0.7,1,1.1,1.8,1.1
		C297.9,166.1,298.6,165.7,299.3,164.8L299.3,164.8z M294.6,160h2.6c0-1.3-0.1-2.3-0.3-2.9c-0.2-0.6-0.6-0.9-1.1-0.9
		C295,156.2,294.6,157.5,294.6,160L294.6,160z"/>
	<path class="st0" d="M302.1,167.9v-13.3h2.3v1.5c0.7-1.2,1.6-1.7,2.6-1.7c1.1,0,1.9,0.4,2.3,1.3c0.4,0.9,0.6,1.7,0.6,2.6v9.6h-2.3
		v-8.5c0-0.9,0-1.5-0.1-1.9c-0.1-0.4-0.2-0.7-0.3-0.9c-0.2-0.2-0.4-0.2-0.8-0.2c-0.7,0-1.3,0.5-1.9,1.6v9.9H302.1L302.1,167.9z"/>
	<path class="st0" d="M320.6,167.9h-2.3v-1h-0.1c-0.6,0.8-1.3,1.2-2.2,1.2c-0.7,0-1.3-0.3-1.9-0.9c-0.6-0.6-1-1.4-1.4-2.4
		c-0.3-1-0.5-2.2-0.5-3.4c0-1.4,0.2-2.7,0.5-3.8c0.3-1.1,0.8-1.9,1.4-2.5c0.6-0.6,1.2-0.9,2-0.9c0.8,0,1.5,0.4,2.1,1.1v-7.5h2.3
		V167.9L320.6,167.9z M318.2,164.5v-6.9c-0.3-0.9-0.9-1.3-1.5-1.3c-0.6,0-1.1,0.4-1.5,1.3c-0.4,0.9-0.5,2.1-0.5,3.6
		c0,1.4,0.2,2.6,0.5,3.3c0.3,0.8,0.8,1.2,1.4,1.2C317.2,165.8,317.8,165.4,318.2,164.5L318.2,164.5z"/>
	<path class="st0" d="M323.3,167.9v-20.1h2.3v7.5c0.6-0.7,1.3-1.1,2.1-1.1c0.8,0,1.4,0.3,2,0.9c0.6,0.6,1,1.4,1.3,2.4
		c0.3,1,0.5,2.3,0.5,3.7c0,1.4-0.2,2.6-0.5,3.6c-0.3,1.1-0.8,1.9-1.3,2.4c-0.6,0.6-1.3,0.8-2,0.8c-0.8,0-1.5-0.3-2.1-1v0.8H323.3
		L323.3,167.9z M325.7,157.7v6.9c0.4,0.9,0.9,1.3,1.6,1.3c0.6,0,1.1-0.4,1.5-1.2c0.3-0.8,0.5-2,0.5-3.5c0-1.6-0.2-2.8-0.5-3.6
		c-0.4-0.8-0.9-1.3-1.5-1.3C326.6,156.4,326.1,156.8,325.7,157.7L325.7,157.7z"/>
	<path class="st0" d="M340.6,164.8v2.3c-0.9,0.8-1.8,1.2-2.7,1.2c-0.9,0-1.6-0.3-2.3-0.8c-0.6-0.6-1.1-1.4-1.5-2.4
		c-0.3-1.1-0.5-2.3-0.5-3.8c0-2.2,0.3-3.9,1-5.1c0.7-1.2,1.6-1.8,2.7-1.8c0.8,0,1.5,0.3,2,0.8c0.5,0.5,0.9,1.2,1.1,2
		c0.2,0.8,0.4,1.6,0.4,2.3c0,0.7,0.1,1.5,0.1,2.4H336c0,1.5,0.2,2.6,0.6,3.3c0.4,0.7,1,1.1,1.8,1.1
		C339.2,166.1,339.9,165.7,340.6,164.8L340.6,164.8z M335.9,160h2.6c0-1.3-0.1-2.3-0.3-2.9c-0.2-0.6-0.6-0.9-1.1-0.9
		C336.4,156.2,336,157.5,335.9,160L335.9,160z"/>
	<polygon class="st0" points="345.3,168.2 341.7,154.6 344,154.6 345.8,161.7 345.8,161.7 347.8,154.6 348.7,154.6 350.7,161.7 
		350.7,161.7 352.4,154.6 354.8,154.6 351.2,168.2 350.5,168.2 348.3,160.2 348.2,160.2 346,168.2 345.3,168.2 	"/>
	<path class="st0" d="M363,164.8v2.3c-0.9,0.8-1.8,1.2-2.7,1.2c-0.9,0-1.6-0.3-2.3-0.8c-0.6-0.6-1.1-1.4-1.5-2.4
		c-0.3-1.1-0.5-2.3-0.5-3.8c0-2.2,0.3-3.9,1-5.1c0.7-1.2,1.6-1.8,2.7-1.8c0.8,0,1.5,0.3,2,0.8c0.5,0.5,0.9,1.2,1.1,2
		c0.2,0.8,0.4,1.6,0.4,2.3c0,0.7,0.1,1.5,0.1,2.4h-4.9c0,1.5,0.2,2.6,0.6,3.3c0.4,0.7,1,1.1,1.8,1.1
		C361.6,166.1,362.4,165.7,363,164.8L363,164.8z M358.4,160h2.6c0-1.3-0.1-2.3-0.3-2.9c-0.2-0.6-0.6-0.9-1.1-0.9
		C358.8,156.2,358.4,157.5,358.4,160L358.4,160z"/>
	<path class="st0" d="M373.9,156.6h-1.8c0.5,0.8,0.8,1.9,0.8,3.1c0,1.6-0.3,2.8-1,3.6c-0.7,0.8-1.4,1.2-2.2,1.4
		c-0.6,0.1-1.1,0.2-1.3,0.3c-0.3,0.1-0.4,0.4-0.4,0.7c0,0.3,0.1,0.5,0.2,0.6c0.1,0.1,0.3,0.2,0.6,0.3c0.2,0.1,0.9,0.2,2,0.5
		c0.8,0.2,1.6,0.6,2.2,1.2c0.6,0.6,1,1.5,1,2.6c0,0.8-0.2,1.5-0.6,2.2c-0.4,0.6-0.9,1.1-1.6,1.5c-0.7,0.4-1.4,0.5-2.3,0.5
		c-0.9,0-1.7-0.2-2.4-0.5c-0.7-0.3-1.2-0.8-1.6-1.3c-0.4-0.6-0.6-1.2-0.6-1.9c0-0.7,0.2-1.4,0.6-1.9c0.4-0.6,1-1,1.7-1.3
		c-1-0.5-1.5-1.1-1.5-1.9c0-1,0.6-1.7,1.9-2.2c-1.4-1-2-2.5-2-4.5c0-1.5,0.3-2.7,1-3.7c0.7-0.9,1.7-1.4,3.2-1.4h4.3V156.6
		L373.9,156.6z M367.5,159.7c0,1,0.1,1.8,0.4,2.4c0.3,0.6,0.7,0.9,1.2,0.9c0.5,0,0.8-0.3,1.1-0.9c0.3-0.6,0.4-1.3,0.4-2.2
		c0-1.1-0.1-1.9-0.4-2.6c-0.3-0.6-0.6-0.9-1.1-0.9c-0.5,0-0.9,0.3-1.2,0.9C367.7,157.8,367.5,158.6,367.5,159.7L367.5,159.7z
		 M366.9,171.3c0,0.6,0.2,1.1,0.7,1.4c0.4,0.4,1,0.5,1.8,0.5c0.7,0,1.2-0.2,1.7-0.6c0.5-0.4,0.7-0.9,0.7-1.5c0-0.6-0.2-1-0.7-1.5
		c-0.5-0.4-1.1-0.6-1.8-0.6c-0.7,0-1.2,0.2-1.6,0.6C367.1,170.1,366.9,170.6,366.9,171.3L366.9,171.3z"/>
	<path class="st0" d="M383.3,154.6v13.3h-2.3v-1.4h-0.1c-0.4,0.6-0.7,1.1-1.1,1.3c-0.4,0.2-0.8,0.4-1.3,0.4c-1.2,0-2-0.4-2.4-1.3
		c-0.4-0.8-0.6-1.7-0.6-2.7v-9.6h2.3v8.5c0,0.9,0,1.5,0.1,1.9c0.1,0.4,0.2,0.7,0.3,0.8c0.2,0.2,0.4,0.2,0.8,0.2
		c0.7,0,1.4-0.5,1.9-1.6v-9.9H383.3L383.3,154.6z"/>
	<path class="st0" d="M386.3,167.9v-13.3h2.3v1.5c0.7-1.2,1.6-1.7,2.6-1.7c1.1,0,1.9,0.4,2.3,1.3s0.6,1.7,0.6,2.6v9.6h-2.3v-8.5
		c0-0.9,0-1.5-0.1-1.9c-0.1-0.4-0.2-0.7-0.3-0.9c-0.2-0.2-0.4-0.2-0.8-0.2c-0.7,0-1.3,0.5-1.9,1.6v9.9H386.3L386.3,167.9z"/>
	<path class="st0" d="M404.9,156.6h-1.8c0.5,0.8,0.8,1.9,0.8,3.1c0,1.6-0.3,2.8-1,3.6c-0.7,0.8-1.4,1.2-2.2,1.4
		c-0.6,0.1-1.1,0.2-1.3,0.3c-0.3,0.1-0.4,0.4-0.4,0.7c0,0.3,0.1,0.5,0.2,0.6c0.1,0.1,0.3,0.2,0.6,0.3c0.2,0.1,0.9,0.2,2,0.5
		c0.8,0.2,1.6,0.6,2.2,1.2c0.6,0.6,1,1.5,1,2.6c0,0.8-0.2,1.5-0.6,2.2c-0.4,0.6-0.9,1.1-1.6,1.5c-0.7,0.4-1.4,0.5-2.3,0.5
		c-0.9,0-1.7-0.2-2.4-0.5c-0.7-0.3-1.2-0.8-1.6-1.3c-0.4-0.6-0.6-1.2-0.6-1.9c0-0.7,0.2-1.4,0.6-1.9c0.4-0.6,1-1,1.7-1.3
		c-1-0.5-1.5-1.1-1.5-1.9c0-1,0.6-1.7,1.9-2.2c-1.4-1-2-2.5-2-4.5c0-1.5,0.3-2.7,1-3.7c0.7-0.9,1.7-1.4,3.2-1.4h4.3V156.6
		L404.9,156.6z M398.5,159.7c0,1,0.1,1.8,0.4,2.4c0.3,0.6,0.7,0.9,1.2,0.9c0.5,0,0.8-0.3,1.1-0.9c0.3-0.6,0.4-1.3,0.4-2.2
		c0-1.1-0.1-1.9-0.4-2.6c-0.3-0.6-0.6-0.9-1.1-0.9c-0.5,0-0.9,0.3-1.2,0.9C398.7,157.8,398.5,158.6,398.5,159.7L398.5,159.7z
		 M397.9,171.3c0,0.6,0.2,1.1,0.7,1.4c0.4,0.4,1,0.5,1.8,0.5c0.7,0,1.2-0.2,1.7-0.6c0.5-0.4,0.7-0.9,0.7-1.5c0-0.6-0.2-1-0.7-1.5
		c-0.5-0.4-1.1-0.6-1.8-0.6c-0.7,0-1.2,0.2-1.6,0.6C398.1,170.1,397.9,170.6,397.9,171.3L397.9,171.3z"/>
	<path class="st0" d="M226.8,196.3V183h2.3v13.3H226.8L226.8,196.3z M226.6,177.3c0-0.4,0.1-0.7,0.4-0.9c0.3-0.3,0.6-0.4,1-0.4
		c0.4,0,0.7,0.1,1,0.4c0.3,0.3,0.4,0.6,0.4,1c0,0.4-0.1,0.7-0.4,1c-0.3,0.3-0.6,0.4-1,0.4c-0.4,0-0.7-0.1-0.9-0.4
		C226.8,178,226.6,177.6,226.6,177.3L226.6,177.3z"/>
	<path class="st0" d="M245.3,196.3H243v-8.5c0-0.9,0-1.5-0.1-1.9c-0.1-0.4-0.2-0.7-0.3-0.9c-0.2-0.1-0.4-0.2-0.8-0.2
		c-0.4,0-0.7,0.1-1,0.4c-0.3,0.2-0.6,0.7-0.9,1.2v9.9h-2.3v-8.5c0-0.9,0-1.5-0.1-1.9c-0.1-0.4-0.2-0.7-0.3-0.8
		c-0.2-0.1-0.4-0.2-0.8-0.2c-0.7,0-1.3,0.5-1.9,1.6v9.9h-2.3V183h2.3v1.5c0.4-0.6,0.8-1.1,1.2-1.3c0.4-0.3,0.9-0.4,1.4-0.4
		c0.6,0,1.1,0.2,1.5,0.5c0.4,0.3,0.8,0.8,1.2,1.5c0.5-0.7,0.9-1.3,1.3-1.5c0.4-0.3,0.9-0.4,1.5-0.4c1.1,0,1.9,0.4,2.3,1.3
		c0.4,0.9,0.6,1.7,0.6,2.6V196.3L245.3,196.3z"/>
	<polygon class="st0" points="253.9,196.3 253.9,176.2 261,176.2 261,178.5 256.4,178.5 256.4,184.7 260.6,184.7 260.6,187 
		256.4,187 256.4,193.9 261.2,193.9 261.2,196.3 253.9,196.3 	"/>
	<path class="st0" d="M264.1,196.3V183h2.4v3.6h0.1c0.3-1.1,0.6-1.9,0.8-2.4c0.2-0.5,0.5-0.9,0.7-1.1c0.3-0.2,0.6-0.3,1-0.3
		c0.4,0,0.8,0.1,1.2,0.4l-0.2,2.4c-0.3-0.2-0.6-0.3-1-0.3c-0.7,0-1.2,0.4-1.6,1.2c-0.4,0.8-0.6,1.7-0.8,2.7c-0.1,1-0.2,1.9-0.2,2.7
		v4.6H264.1L264.1,196.3z"/>
	<polygon class="st0" points="270.4,196.3 274.5,185 270.7,185 270.7,183 277.7,183 273.5,194.2 277.8,194.2 277.8,196.3 
		270.4,196.3 	"/>
	<path class="st0" d="M279.6,196.3v-20.1h2.3v7.5c0.6-0.7,1.3-1.1,2.1-1.1c0.8,0,1.4,0.3,2,0.9c0.6,0.6,1,1.4,1.3,2.4
		c0.3,1,0.5,2.3,0.5,3.7c0,1.4-0.2,2.6-0.5,3.6c-0.3,1.1-0.8,1.9-1.3,2.4c-0.6,0.6-1.3,0.8-2,0.8c-0.8,0-1.5-0.3-2.1-1v0.8H279.6
		L279.6,196.3z M282,186.1v6.9c0.4,0.9,0.9,1.3,1.6,1.3c0.6,0,1.1-0.4,1.5-1.2c0.3-0.8,0.5-2,0.5-3.5c0-1.6-0.2-2.8-0.5-3.6
		c-0.4-0.8-0.9-1.3-1.5-1.3C282.9,184.8,282.4,185.2,282,186.1L282,186.1z"/>
	<path class="st0" d="M290.4,196.3V183h2.3v13.3H290.4L290.4,196.3z M290.2,177.3c0-0.4,0.1-0.7,0.4-0.9c0.3-0.3,0.6-0.4,1-0.4
		c0.4,0,0.7,0.1,1,0.4c0.3,0.3,0.4,0.6,0.4,1c0,0.4-0.1,0.7-0.4,1c-0.3,0.3-0.6,0.4-1,0.4c-0.4,0-0.7-0.1-0.9-0.4
		C290.3,178,290.2,177.6,290.2,177.3L290.2,177.3z"/>
	<path class="st0" d="M295,195.6V193c0.9,1,1.7,1.5,2.3,1.5c0.3,0,0.6-0.1,0.8-0.3c0.2-0.2,0.3-0.5,0.3-0.8c0-0.4-0.1-0.8-0.3-1.2
		c-0.2-0.4-0.6-1.1-1.2-2c-0.6-0.9-1-1.7-1.3-2.3c-0.3-0.6-0.4-1.3-0.4-1.9c0-0.9,0.3-1.7,0.8-2.3c0.5-0.6,1.2-0.9,2.1-0.9
		c0.7,0,1.5,0.3,2.2,0.8v2.2c-0.7-0.6-1.4-0.9-2-0.9c-0.3,0-0.5,0.1-0.7,0.3c-0.2,0.2-0.3,0.4-0.3,0.7c0,0.5,0.4,1.3,1.3,2.6
		c0.8,1.2,1.4,2.1,1.8,2.7c0.3,0.6,0.5,1.3,0.5,2.2c0,1-0.3,1.8-0.9,2.5c-0.6,0.7-1.3,1-2.3,1C296.8,196.6,295.9,196.3,295,195.6
		L295,195.6z"/>
	<path class="st0" d="M308.3,194.1v2.1c-0.8,0.3-1.5,0.5-2.1,0.5c-0.6,0-1.1-0.1-1.5-0.3c-0.4-0.2-0.6-0.6-0.7-1.2
		c-0.1-0.5-0.2-1.3-0.2-2.4V185h-1.6l3.9-5.6v3.5h2.2v2h-2.2v7.6c0,0.7,0.1,1.2,0.2,1.4c0.1,0.2,0.4,0.4,0.8,0.4
		C307.4,194.4,307.8,194.3,308.3,194.1L308.3,194.1z"/>
	<path class="st0" d="M317.7,183v13.3h-2.3v-1.4h-0.1c-0.4,0.6-0.7,1.1-1.1,1.3c-0.4,0.2-0.8,0.4-1.3,0.4c-1.2,0-2-0.4-2.4-1.3
		c-0.4-0.8-0.6-1.7-0.6-2.7V183h2.3v8.5c0,0.9,0,1.5,0.1,1.9c0.1,0.4,0.2,0.7,0.3,0.8c0.2,0.2,0.4,0.2,0.8,0.2
		c0.7,0,1.4-0.5,1.9-1.6V183H317.7L317.7,183z"/>
	<path class="st0" d="M333.9,196.3h-2.3v-8.5c0-0.9,0-1.5-0.1-1.9c-0.1-0.4-0.2-0.7-0.3-0.9c-0.2-0.1-0.4-0.2-0.8-0.2
		c-0.4,0-0.7,0.1-1,0.4c-0.3,0.2-0.6,0.7-0.9,1.2v9.9h-2.3v-8.5c0-0.9,0-1.5-0.1-1.9c-0.1-0.4-0.2-0.7-0.3-0.8
		c-0.2-0.1-0.4-0.2-0.8-0.2c-0.7,0-1.3,0.5-1.9,1.6v9.9h-2.3V183h2.3v1.5c0.4-0.6,0.8-1.1,1.2-1.3c0.4-0.3,0.9-0.4,1.4-0.4
		c0.6,0,1.1,0.2,1.5,0.5c0.4,0.3,0.8,0.8,1.2,1.5c0.5-0.7,0.9-1.3,1.3-1.5c0.4-0.3,0.9-0.4,1.5-0.4c1.1,0,1.9,0.4,2.3,1.3
		c0.4,0.9,0.6,1.7,0.6,2.6V196.3L333.9,196.3z"/>
	<path class="st0" d="M342.5,196.3v-20.1h2.4c1.7,0,3.3,0.4,4.6,1.2c1.3,0.8,2,2.2,2,4.2c0,2.1-0.5,3.5-1.6,4.4
		c-1.1,0.9-2.7,1.4-4.7,1.4v8.8H342.5L342.5,196.3z M348.7,181.7c0-2.1-1.2-3.2-3.7-3.2v6.6c1.2,0,2.2-0.3,2.8-0.7
		C348.4,183.8,348.7,182.9,348.7,181.7L348.7,181.7z"/>
	<path class="st0" d="M360.6,193.8v1.8c-0.8,0.7-1.4,1-1.8,1c-0.9,0-1.4-0.6-1.7-1.7c-0.8,1.2-1.7,1.7-2.6,1.7c-0.7,0-1.3-0.3-1.8-1
		c-0.5-0.7-0.8-1.5-0.8-2.4c0-0.6,0.1-1.2,0.4-1.7c0.3-0.5,0.7-1,1.1-1.4c0.5-0.4,1-0.8,1.6-1.2c0.6-0.4,1.3-0.8,1.9-1.2v-1.3
		c0-1.2-0.5-1.7-1.4-1.7c-1,0-2.1,0.7-3.4,2.2v-2.7c0.7-0.7,1.3-1.1,1.8-1.3s1.1-0.4,1.8-0.4c1.3,0,2.2,0.4,2.8,1.2
		c0.5,0.8,0.8,1.7,0.8,2.5v7.3c0,0.6,0.1,0.8,0.3,0.8C359.8,194.5,360.1,194.3,360.6,193.8L360.6,193.8z M357,192.9v-3.4
		c-1,0.6-1.7,1.2-2.1,1.7c-0.4,0.6-0.7,1.1-0.7,1.8c0,0.4,0.1,0.8,0.3,1.1c0.2,0.3,0.5,0.4,0.8,0.4c0.3,0,0.5-0.1,0.8-0.4
		C356.5,193.7,356.8,193.4,357,192.9L357,192.9z"/>
	<path class="st0" d="M370.2,196.3h-2.3v-1h-0.1c-0.6,0.8-1.3,1.2-2.2,1.2c-0.7,0-1.3-0.3-1.9-0.9c-0.6-0.6-1-1.4-1.4-2.4
		c-0.3-1-0.5-2.2-0.5-3.4c0-1.4,0.2-2.7,0.5-3.8c0.3-1.1,0.8-1.9,1.4-2.5c0.6-0.6,1.2-0.9,2-0.9c0.8,0,1.5,0.4,2.1,1.1v-7.5h2.3
		V196.3L370.2,196.3z M367.9,192.9v-6.9c-0.3-0.9-0.9-1.3-1.5-1.3c-0.6,0-1.1,0.4-1.5,1.3c-0.4,0.9-0.5,2.1-0.5,3.6
		c0,1.4,0.2,2.6,0.5,3.3c0.3,0.8,0.8,1.2,1.4,1.2C366.9,194.2,367.4,193.8,367.9,192.9L367.9,192.9z"/>
	<path class="st0" d="M379.6,193.2v2.3c-0.9,0.8-1.8,1.2-2.7,1.2c-0.9,0-1.6-0.3-2.3-0.8c-0.6-0.6-1.1-1.4-1.5-2.4
		c-0.3-1.1-0.5-2.3-0.5-3.8c0-2.2,0.3-3.9,1-5.1c0.7-1.2,1.6-1.8,2.7-1.8c0.8,0,1.5,0.3,2,0.8c0.5,0.5,0.9,1.2,1.1,2
		c0.2,0.8,0.4,1.6,0.4,2.3c0,0.7,0.1,1.5,0.1,2.4h-4.9c0,1.5,0.2,2.6,0.6,3.3c0.4,0.7,1,1.1,1.8,1.1
		C378.2,194.5,378.9,194.1,379.6,193.2L379.6,193.2z M374.9,188.4h2.6c0-1.3-0.1-2.3-0.3-2.9c-0.2-0.6-0.6-0.9-1.1-0.9
		C375.3,184.6,374.9,185.9,374.9,188.4L374.9,188.4z"/>
	<path class="st0" d="M382.5,196.3V183h2.4v3.6h0.1c0.3-1.1,0.6-1.9,0.8-2.4c0.2-0.5,0.5-0.9,0.7-1.1c0.3-0.2,0.6-0.3,1-0.3
		c0.4,0,0.8,0.1,1.2,0.4l-0.2,2.4c-0.3-0.2-0.6-0.3-1-0.3c-0.7,0-1.2,0.4-1.6,1.2c-0.4,0.8-0.6,1.7-0.8,2.7c-0.1,1-0.2,1.9-0.2,2.7
		v4.6H382.5L382.5,196.3z"/>
	<path class="st0" d="M389.9,196.3v-20.1h2.3v7.5c0.6-0.7,1.3-1.1,2.1-1.1c0.8,0,1.4,0.3,2,0.9c0.6,0.6,1,1.4,1.3,2.4
		c0.3,1,0.5,2.3,0.5,3.7c0,1.4-0.2,2.6-0.5,3.6c-0.3,1.1-0.8,1.9-1.3,2.4c-0.6,0.6-1.3,0.8-2,0.8c-0.8,0-1.5-0.3-2.1-1v0.8H389.9
		L389.9,196.3z M392.2,186.1v6.9c0.4,0.9,0.9,1.3,1.6,1.3c0.6,0,1.1-0.4,1.5-1.2c0.3-0.8,0.5-2,0.5-3.5c0-1.6-0.2-2.8-0.5-3.6
		c-0.4-0.8-0.9-1.3-1.5-1.3C393.1,184.8,392.6,185.2,392.2,186.1L392.2,186.1z"/>
	<path class="st0" d="M400.1,189.8c0-1.5,0.2-2.8,0.5-3.8c0.3-1.1,0.8-1.9,1.4-2.5c0.6-0.6,1.4-0.9,2.2-0.9c0.9,0,1.6,0.3,2.2,0.9
		c0.6,0.6,1.1,1.4,1.4,2.5c0.3,1.1,0.5,2.4,0.5,3.8c0,1.4-0.2,2.6-0.5,3.6c-0.3,1-0.8,1.9-1.5,2.4c-0.6,0.6-1.4,0.9-2.2,0.9
		c-0.8,0-1.6-0.3-2.2-0.9c-0.6-0.6-1.1-1.4-1.5-2.4C400.3,192.3,400.1,191.1,400.1,189.8L400.1,189.8z M402.5,189.8
		c0,1.4,0.2,2.5,0.5,3.3c0.3,0.8,0.8,1.2,1.3,1.2c0.5,0,1-0.4,1.3-1.2c0.3-0.8,0.5-1.9,0.5-3.4c0-3.3-0.6-4.9-1.8-4.9
		C403.1,184.9,402.5,186.5,402.5,189.8L402.5,189.8z"/>
	<path class="st0" d="M411,196.3V183h2.4v3.6h0.1c0.3-1.1,0.6-1.9,0.8-2.4c0.2-0.5,0.5-0.9,0.7-1.1c0.3-0.2,0.6-0.3,1-0.3
		c0.4,0,0.8,0.1,1.2,0.4l-0.2,2.4c-0.3-0.2-0.6-0.3-1-0.3c-0.7,0-1.2,0.4-1.6,1.2c-0.4,0.8-0.6,1.7-0.8,2.7c-0.1,1-0.2,1.9-0.2,2.7
		v4.6H411L411,196.3z"/>
	<path class="st0" d="M418.5,196.3V183h2.3v1.5c0.7-1.2,1.6-1.7,2.6-1.7c1.1,0,1.9,0.4,2.3,1.3c0.4,0.9,0.6,1.7,0.6,2.6v9.6h-2.3
		v-8.5c0-0.9,0-1.5-0.1-1.9c-0.1-0.4-0.2-0.7-0.3-0.9c-0.2-0.2-0.4-0.2-0.8-0.2c-0.7,0-1.3,0.5-1.9,1.6v9.9H418.5L418.5,196.3z"/>
	<path class="st0" d="M23.5,34.4c35.2-41.2,97.5-46.1,138.7-11c10.8,9.2,19.1,20.2,24.8,32.3c-7.8,5.6-18.5,15.4-33.4,25v-4.6
		c0-0.5-0.4-0.9-0.9-0.9h-14.8c-0.5,0-0.9,0.4-0.9,0.9v14.1C121.1,98,101.8,104.4,78,106V63.7c7.4,0,14.8,0,22.2,0
		c1,0,1.9-0.9,1.9-1.9l-0.1-16.5c0-1.1-0.9-1.9-1.9-1.9c-7.3,0-14.7,0-22,0V26.8c0-1.1-0.9-1.9-1.9-1.9H59.6c-1.1,0-1.9,0.9-1.9,1.9
		v16.6c-7.3,0-14.7,0-22,0c-1.1,0-1.9,0.9-1.9,1.9l-0.1,16.5c0,1.1,0.8,1.9,1.9,1.9c7.4,0,14.8,0,22.2,0v42.5
		c-17.2-0.8-36.3-4-57.7-10.6C0.6,73.9,8.3,52.2,23.5,34.4L23.5,34.4z M194.9,80c5.3,28.3-1.7,58.7-21.8,82.2
		c-35.2,41.2-97.5,46.1-138.7,11c-22.2-19-33.9-45.8-34.4-72.9c19.4,14.5,81.2,21.7,136.3,7.3c-2.5,21.7-12,50.1-30.7,64
		c52,4.5,69.3-24.5,82.1-57.7c0.1-0.3,0-0.5-0.4-0.5h-32.6c-1,0-1.2-0.9-1.2-1.2c0-3.3,0-6.6,0-9.9C168.7,96.8,182.8,89.5,194.9,80
		L194.9,80z M56.8,133.6l-7.2,12.6l7.2,15.8h-9.2l-5.9-14v14h-8.1v-28.4h8.1v11.6l5.9-11.6H56.8L56.8,133.6z M65.9,133.6v22.2h9.3
		v6.2H57.8v-28.4H65.9L65.9,133.6z M86,133.6v26.6c0,1.5,0,2.7-0.1,3.7c-0.1,1-0.4,1.9-0.8,2.8c-0.8,1.5-1.9,2.6-3.4,3.3
		c-1.5,0.8-3.1,1.1-4.9,1.1c-0.1,0-0.2,0-0.4,0c-0.2,0-0.3,0-0.4,0l-2.1-7.2c0.1,0,0.3,0,0.6,0c1.1,0,1.8-0.3,2.3-0.8
		c0.5-0.5,0.8-1.2,0.9-1.9c0.1-0.7,0.2-1.7,0.2-2.9v-24.8H86L86,133.6z M88.7,133.6h10.1c2.9,0,5,0.3,6.3,0.9
		c1.2,0.6,2.1,1.5,2.7,2.7c0.6,1.2,1,2.6,1,4c0,2.6-1.1,4.6-3.4,6c2.8,1.3,4.2,3.6,4.2,6.7c0,1.5-0.4,2.9-1.2,4.3
		c-0.8,1.4-1.8,2.4-3.1,3c-0.9,0.4-1.9,0.7-3,0.8c-1,0.1-2.3,0.2-3.9,0.2h-9.8V133.6L88.7,133.6z M96.8,139.3v5.8l0.6,0
		c1.2,0,2-0.2,2.5-0.7c0.5-0.5,0.8-1.2,0.8-2.3c0-1.2-0.3-2-0.8-2.3c-0.5-0.4-1.4-0.5-2.7-0.5H96.8L96.8,139.3z M96.8,150.3v6.2h0.7
		c1.3,0,2.2-0.2,2.6-0.6c0.7-0.6,1-1.4,1-2.5c0-1.4-0.5-2.3-1.4-2.8c-0.4-0.2-1.1-0.3-2.1-0.3H96.8L96.8,150.3z"/>
</g>
</svg>
