<svg xmlns="http://www.w3.org/2000/svg" xmlns:xlink="http://www.w3.org/1999/xlink" style="-webkit-font-smoothing:antialiased" font-family="&quot;Arial&quot;,sans-serif" font-style="italic" font-weight="600" viewBox="0 0 303.31 102.05">
  <defs>
    <path id="a" d="M0 0h303.3v102.05H0z"/>
  </defs>
  <clipPath id="b">
    <use xlink:href="#a" overflow="visible"/>
  </clipPath>
  <path fill="#ED1C24" d="M146.88 25.7h155.38v54.75H146.88z" clip-path="url(#b)"/>
  <path fill="#0054A6"
        d="M232.5 1.45c20.13 7.25 44.75 24.63 53.63 33.25-.63 15.38-8 37.25-10.13 41.25-14.5.25-43.25-3.25-54.75-5-3.25-20.12-3.5-44.87 11.25-69.5"
        clip-path="url(#b)"/>
  <path fill="#00A651"
        d="M160.75 35.58c18.88-4.88 33.88-7.5 56.38-7-1.75 20.37-2.25 37.12 3.62 57.87-10.5 6.75-30.38 12.88-39.13 13.88-18-32.63-14.25-37.38-20.87-64.75"
        clip-path="url(#b)"/>
  <path fill="#FFF200"
        d="M272.9 36.8c-1.1-.8-2.8-.9-4.2-.4-4.8 1.3-7.9 6.7-12.3 9-.4-.3-1-.7-.6-1.2l5.6-7.4c2.1-2.7 4.8-5.2 5.1-8.7.2-1.9-.3-3.4-1.5-4.7-1.2-1.2-2.9-1.2-4.7-1.3-5.7 1.5-12.3.6-18.2 0-1.5.2-2.8 1.7-3.6 3-3 7.7 5.3 12.6 9.4 18.2l.4 1.2c-1.6.7-3-1.6-4.5-2.4-4.1-2.2-7.7-7.2-12.8-5.6-5 2.5-1.7 8.4-2 12.6.4 4.5-2.6 9.9 1.8 13.1 6.9 3.4 11.7-4.1 16.8-7.6 1.2-.4 2.4.4 3 1.4.5 5.6-.5 12 4.1 15.6.5-.7 1.1-1.5 1.2-2.4-3.2-3.5-3.5-8.6-2.9-13.4.6-.8 1.4-1.2 2.3-.8 5.4 3.3 9.7 11.2 16.7 8.8 3.6-2.1 2.1-6.5 1.8-9.9-2.3-6.1 4.1-11.9-.9-17.1zm-21 13.5c-.3-.1-.4-.4-.7-.6l.6-.9c.3.1.5.4.7.6-.1.3-.3.6-.6.9zm20.1 4.4c.1 2.2 1.4 4.9-.1 6.9-1.1 1-2.9 1.2-4.1.6-4.8-2-8.1-7.5-13-9.3l-1.9.5c-.3-1.2.5-1.9.7-2.9l15.4-.2c.5-.5.9-1.3.3-1.8l-.6-.5h-15.1l-.8-1.1.1-18.5c-.4-.5-1-.9-1.7-.6l-.5.5.3 18.7-1.1 1.1-15.7-.1c-.8.6-.6 1.5-.2 2.2 5.2.4 10.7.1 16.1.2.1 1 .8 1.8.5 2.9-5.4-2.5-8.5 5-13 6.9-1.4 1-3.4 1.3-5.1.8-1.2-.4-1.7-1.8-2.1-2.8-.3-3 .7-5.8.6-8.9.7-3.8-3.3-9.4 1.5-11.4l1.9.3c4.4 2.4 8.4 5.9 12.7 8.5 1.4.4 2.5-.5 3-1.6.7-1.7-.9-2.8-1.8-4.1-3.4-4.9-11.4-9.5-7.4-16 1.3-1.7 3.9-.9 5.6-.8 4.3 1 9.6.9 13.7-.3 1.7-.1 3.4.4 4.2 1.9 1.2 4.7-3 7.7-5.5 11.2-1.9 2.8-5.8 5.3-4.7 9 .9 1.1 2.2 1.4 3.5 1 4.2-2.6 7.3-7.6 12-9 1.4-.3 2.7.5 3.1 1.7.2 4.9-2.2 9.8-.8 15zm-57.4 5.4c0-1.6-.3-3.2-1.5-4.3-2.4-2.2-5.7-2.9-8.8-2.2-4.3 1.2-7.3 5.4-8.1 9.5-.5 1.4-.2 3.2-.8 4.3-1.5-7.2 3.5-12.3 5.6-18.3 1.5-7.4-5.2-12.3-8.3-18.1-3.3 6.4-11.2 12-7.5 20.1 2.8 5 5.9 9.9 5 16.2l-.3.1c-.4-2.2-.5-4.6-1.3-6.7-1.3-3.7-4.7-6.6-8.5-7.2-3.2-.5-6 .6-8.2 2.8-4.1 4.8 3.8 8.4.6 13.2.4.3.9.6 1.5.7 4.6 1.5 4.6-4 8.1-5.2 1.3-.5 2.3.4 3.1 1.4 1.9 1.8-1.7 1.6-1.4 3.3-.4 1.2.2 2.2.7 3.1 1.2 1.3 3.1.7 4.7 1v.6c-2.1 2.9-6.3 1.5-8.4 4.4-1 2-.8 5 .7 6.5 1.8-.6 4.2-.4 5.8.3l-.6 1.6c-1.2 4.3 3.7 6 6 8.7 1.7-1.8 3.9-2.7 5.4-4.8 1.2-1.7.7-4.1.2-5.8 1.9-.6 3.9-.4 5.8-.1 1.3-1.6 1.5-4.2.7-6.1-1.5-2.5-4.7-2.2-7-3.4-.7-.3-1.8-1.1-1.4-2 1.6-.2 3.6.5 4.7-1.1.5-.9.9-1.9.6-3-.3-1.1-1.4-1.5-1.9-2.3.3-1 1.1-1.7 2-2.3 2.9-.6 4.4 2.5 5.8 4.5 1.6 1.1 3.7.7 5.6.5-2.9-3.4 1.3-6.4 1.4-9.9zM187 50.5c-3.2-6.3 2.9-11.1 5.7-16.1 2.6 4.6 7.6 8.4 6.5 14.2-2.7 6-6.8 11.4-5.8 19h-1.2c.7-6.6-2.1-11.9-5.2-17.1zM183.3 63c-3-.2-5.2 2.7-6.6 5-.6.1-1 .6-1.7.4 1.6-4.5-5.2-7.5-.9-11.6 1.8-1.3 4.1-1.8 6.5-1.4 1.8.7 3.7 1.7 4.9 3.4 1.5 2.6 2.4 5.4 2.4 8.6-.6-1.7-2.4-4-4.6-4.4zm19.5 16.3c.9 1 .6 2.7.3 3.9-2.6-.5-5.1.2-7.4.8.2 1.8 1.9 3.6 1.1 5.6-1 1.6-2.6 2.6-4 3.6-1.6-1.1-3.8-2.3-4.3-4.3-.3-1.9.9-3.1 1.4-4.7-2.2-.7-4.8-1.5-7.5-1-.4-1-.5-2.5.1-3.4 2.7-2.1 8.1-1.3 8.6-6h3.3c.4 4.4 5.4 4.1 8.4 5.5zm-3.2-7.9l-.8.4h-12.5c-.8-.3-.8-1.2-.6-1.8l.5-.5 13.2.1c.6.4.6 1.3.2 1.8zm4.5-8.2c-1.3-.5-2.9-.1-4 .6-1.2 1-2 2.4-2.4 3.8-.1-3.7.8-7.4 3.4-10.1 2.7-2.6 7.6-3.2 10.5-.6 1.2 1.1 1.3 3 .9 4.5-1.3 2.1-2.4 4.3-2.1 6.9-2.9 0-3.2-4.5-6.3-5.1z"
        clip-path="url(#b)"/>
  <g clip-path="url(#b)" class="text" style="fill:#038">
    <text transform="matrix(1.00804 0 0 1 26.268 37.976)" font-size="9.91">
      Pfadibewegung Schweiz
    </text>
    <text transform="matrix(1.00804 0 0 1 6.81 50.03)" font-size="9.91">
      Mouvement Scout de Suisse
    </text>
    <text transform="matrix(1.00804 0 0 1 16.012 61.947)" font-size="9.91">
      Movimento Scout Svizzero
    </text>
    <text transform="matrix(1.00804 0 0 1 1.415 73.882)" font-size="9.91">
      Moviment Battasendas Svizra
    </text>
  </g>
</svg>
