<?xml version="1.0" encoding="UTF-8" standalone="no"?>
<svg
   id="RZ"
   viewBox="0 0 214.11493 68.72007"
   version="1.1"
   sodipodi:docname="Pfadibewegung_Schweiz_CD_Logo_D_F_I_E_quer_WHITE.svg"
   inkscape:version="1.1.1 (3bf5ae0d25, 2021-09-20)"
   xmlns:inkscape="http://www.inkscape.org/namespaces/inkscape"
   xmlns:sodipodi="http://sodipodi.sourceforge.net/DTD/sodipodi-0.dtd"
   xmlns="http://www.w3.org/2000/svg"
   xmlns:svg="http://www.w3.org/2000/svg">
  <sodipodi:namedview
     id="namedview221"
     pagecolor="#47484c"
     bordercolor="#666666"
     borderopacity="1.0"
     inkscape:pageshadow="2"
     inkscape:pageopacity="1"
     inkscape:pagecheckerboard="0"
     showgrid="false"
     inkscape:zoom="3.133831"
     inkscape:cx="64.617397"
     inkscape:cy="36.855848"
     inkscape:window-width="1920"
     inkscape:window-height="1001"
     inkscape:window-x="-9"
     inkscape:window-y="1191"
     inkscape:window-maximized="1"
     inkscape:current-layer="RZ" />
  <defs
     id="defs4">
    <style
       id="style2">.cls-1{fill:#fff;}</style>
  </defs>
  <path
     class="cls-1"
     d="M35.40112,51.53454c0-5.09271-1.93969-9.5553-4.84887-12.04724-2.90943,2.49194-4.84912,6.95453-4.84912,12.04724s1.93969,9.55536,4.84912,12.04724C33.46143,61.0899,35.40112,56.62725,35.40112,51.53454Z"
     transform="translate(-16.61565 -17.12005)"
     id="path6" />
  <path
     class="cls-1"
     d="M23.06915,61.13678a10.37632,10.37632,0,0,0-2.45739-1.38959,7.42894,7.42894,0,0,0-2.68128-.43256,8.47167,8.47167,0,0,0-.96722.084q-.16407,1.85348-.252,3.67779a9.76758,9.76758,0,0,1,2.77869-.2027,12.33286,12.33286,0,0,1,3.74762.93689,22.58927,22.58927,0,0,1,3.53839,1.89643A15.458,15.458,0,0,0,23.06915,61.13678Z"
     transform="translate(-16.61565 -17.12005)"
     id="path8" />
  <path
     class="cls-1"
     d="M22.813,74.03851a3.82145,3.82145,0,0,0,3.74365-3.74359A3.82066,3.82066,0,0,0,22.813,74.03851Z"
     transform="translate(-16.61565 -17.12005)"
     id="path10" />
  <path
     class="cls-1"
     d="M30.48071,78.34112a5.09472,5.09472,0,0,0,0-7.059,5.09474,5.09474,0,0,0,0,7.059Z"
     transform="translate(-16.61565 -17.12005)"
     id="path12" />
  <path
     class="cls-1"
     d="M67.80859,44.13427c.01252-.05859.02387-.11725.03351-.17694.01514-.09845.022-.21155.02942-.32355.00549-.08075.02185-.15814.02185-.24072a2.49981,2.49981,0,0,0-2.54419-2.574c-1.0896-.00525-2.49206.80584-4.39612,2.39483-.4931.41181-4.0191,3.25464-4.182,3.38745.1629.13257,3.6889,2.97608,4.182,3.38807,1.90406,1.589,3.30652,2.40008,4.39612,2.39489a2.5,2.5,0,0,0,2.54419-2.574c0-.08258-.01636-.16-.02185-.24079-.00738-.112-.01428-.22509-.02942-.32348-.00964-.05951-.021-.11835-.03351-.17719-.0664-.329-.15808-.61609-.21728-.97015a10.13632,10.13632,0,0,1,0-2.994C67.65051,44.75054,67.74219,44.46319,67.80859,44.13427Z"
     transform="translate(-16.61565 -17.12005)"
     id="path14" />
  <path
     class="cls-1"
     d="M38.14844,74.03851a3.82112,3.82112,0,0,0-3.74365-3.74359,3.82145,3.82145,0,0,0,3.74365,3.74359Z"
     transform="translate(-16.61565 -17.12005)"
     id="path16" />
  <path
     class="cls-1"
     d="M52.7099,32.51532c-.06573-.014-.13147-.0268-.19849-.03754-.11041-.017-.23736-.02478-.363-.033-.09064-.00617-.17743-.02454-.27008-.02454a2.80473,2.80473,0,0,0-2.88794,2.85437c-.0058,1.22248.90417,2.796,2.68689,4.93207.462.55328,3.65191,4.509,3.8009,4.69177.14874-.1828,3.33844-4.13849,3.80072-4.69177,1.62567-1.948,2.51679-3.4245,2.6582-4.59723q-1.86181-1.59449-3.75048-3.0802c-.344.07318-.65387.16718-1.02906.22992a11.37244,11.37244,0,0,1-3.359,0C53.40137,32.69268,53.079,32.58984,52.7099,32.51532Z"
     transform="translate(-16.61565 -17.12005)"
     id="path18" />
  <path
     class="cls-1"
     d="M45.60675,40.81878a2.5,2.5,0,0,0-2.54419,2.574c0,.08258.01642.16.02191.24072.00733.112.01428.22516.02942.32355.00958.05951.021.11834.03351.17718.06635.329.15808.61609.21729.97016a10.13715,10.13715,0,0,1,0,2.99395c-.05921.35413-.15094.64142-.21729.9704-.01251.0586-.02393.11719-.03351.17694-.01514.09845-.02209.21155-.02942.32355-.00549.08075-.02191.15814-.02191.24072a2.49986,2.49986,0,0,0,2.54419,2.574c1.08966.00525,2.49213-.80591,4.39612-2.39484.4931-.4118,4.01929-3.25506,4.18213-3.38788-.16284-.13256-3.689-2.97564-4.18213-3.38769C48.09888,41.62469,46.69641,40.81359,45.60675,40.81878Z"
     transform="translate(-16.61565 -17.12005)"
     id="path20" />
  <path
     class="cls-1"
     d="M41.61432,62.87377a9.4695,9.4695,0,0,1,3.76861.47822,9.70676,9.70676,0,0,1,2.54743,1.18762,3.89979,3.89979,0,0,0-.58789-3.31714,4.77212,4.77212,0,0,0-4.1687-1.90784,7.42894,7.42894,0,0,0-2.68128.43256,10.37613,10.37613,0,0,0-2.45739,1.38959,15.45787,15.45787,0,0,0-3.70673,4.57031,22.586,22.586,0,0,1,3.53833-1.89643A12.33286,12.33286,0,0,1,41.61432,62.87377Z"
     transform="translate(-16.61565 -17.12005)"
     id="path22" />
  <path
     class="cls-1"
     d="M70.34961,43.58953c-.08087.3877-.18762.733-.258,1.154a9.41889,9.41889,0,0,0-.13671,1.85778v.00043a9.41729,9.41729,0,0,0,.13671,1.85773c.07294.43646.18573.78943.2674,1.19482.0155.07245.02954.14435.04138.21839.01856.12054.027.25946.03613.397.00672.1.027.19507.027.29663a3.78626,3.78626,0,0,1-3.57715,3.96552c-.7077,0-1.69061.059-4.08441-1.8252-.63013-.49615-6.02753-6.1015-6.03076-6.10492h-.00024l.00012-.00043h.00012c.00323-.00317,5.40063-5.60876,6.03076-6.10473a9.266,9.266,0,0,1,2.75879-1.64337Q64.44488,37.81206,63.286,36.788c-.25879.40271-.55951.83746-.95856,1.34436-.55664.707-6.84539,6.76245-6.84924,6.76605v.00025l-.00049-.00013v-.00012c-.00354-.0036-6.2926-6.059-6.849-6.766-2.11267-2.684-2.04791-3.78674-2.04791-4.58081V33.55a4.24782,4.24782,0,0,1,4.44843-4.0133c.114,0,.22113.02264.33282.03021.15454.01019.31067.01972.44647.04065.08252.01324.16345.029.24445.04626.45434.09168.85113.21827,1.34051.30011a10.86625,10.86625,0,0,0,1.58881.15326A91.43192,91.43192,0,0,0,30.55212,17.12005c-5.0512,8.16669-9.14178,18.70331-11.72943,30.28412a92.34273,92.34273,0,0,0-1.64679,9.98035,8.2547,8.2547,0,0,1,1.05585-.032,8.116,8.116,0,0,1,5.74951,2.95832,13.12072,13.12072,0,0,1,2.79468,5.39624,19.88848,19.88848,0,0,0-3.63916-1.03565,15.94422,15.94422,0,0,0-3.64941-.14123,8.50583,8.50583,0,0,0-2.8454.74121A90.39641,90.39641,0,0,0,17.1142,77.0122a105.66491,105.66491,0,0,0,12.15765,4.50153A7.06166,7.06166,0,0,1,27.646,76.95141a6.85333,6.85333,0,0,1,2.83471-5.66931,6.85331,6.85331,0,0,1,2.83472,5.66931,6.966,6.966,0,0,1-2.15485,5.11615A97.63012,97.63012,0,0,0,40.93323,84.248a105.94027,105.94027,0,0,0,25.42749,1.33618,108.607,108.607,0,0,0,9.04272-25.53253c.65747-2.94195,1.19239-5.85638,1.61035-8.72589C74.9895,48.72149,72.76343,46.13226,70.34961,43.58953Zm-46.884,5.819a17.13233,17.13233,0,0,1,7.08667-14.17321,17.13279,17.13279,0,0,1,7.08642,14.17321,17.13271,17.13271,0,0,1-7.08642,14.17322A17.13226,17.13226,0,0,1,23.46558,49.40856ZM25.05322,74.8048a5.13977,5.13977,0,0,1-4.51,1.5033,5.31512,5.31512,0,0,1,6.01343-6.01318A5.14047,5.14047,0,0,1,25.05322,74.8048Zm5.49524-5.64727a6.25175,6.25175,0,0,1-4.25195-1.4173,6.25147,6.25147,0,0,1,4.25195-1.41736,6.2515,6.2515,0,0,1,4.252,1.41736A6.25178,6.25178,0,0,1,30.54846,69.15753ZM40.418,76.3081a5.31508,5.31508,0,0,1-6.01318-6.01318A5.31482,5.31482,0,0,1,40.418,76.3081Zm9.3584-10.11829a12.08574,12.08574,0,0,1-.82813,1.74048l-1.20593-.891a15.56955,15.56955,0,0,0-2.84613-1.57983,8.98311,8.98311,0,0,0-3.2793-.92926,15.9442,15.9442,0,0,0-3.64941.14123,19.88925,19.88925,0,0,0-3.6391,1.03565A13.12131,13.12131,0,0,1,37.123,60.31085a8.116,8.116,0,0,1,5.74951-2.95832,8.32954,8.32954,0,0,1,3.37109.56678,6.70075,6.70075,0,0,1,2.81958,2.19055A6.44607,6.44607,0,0,1,49.77637,66.18981Zm4.40857-19.58807h-.00013c-.00323.00317-5.40063,5.60877-6.03082,6.10474-2.39227,1.88305-3.37524,1.82538-4.083,1.82538h-.00134a3.78619,3.78619,0,0,1-3.57715-3.965c0-.10162.02021-.19708.02692-.29663.009-.13782.01752-.27692.03619-.398.01184-.07349.02588-.14569.04126-.21784.08173-.405.19458-.75866.26752-1.19482a9.42921,9.42921,0,0,0,.13672-1.85779v-.00043a9.4272,9.4272,0,0,0-.13672-1.85772c-.07294-.43647-.18573-.78943-.2674-1.19489-.0155-.07239-.02954-.14435-.04138-.21832-.01861-.12061-.0271-.25952-.03613-.397-.00671-.1-.027-.19506-.027-.29663a3.78618,3.78618,0,0,1,3.57715-3.96551c.7077,0,1.69061-.059,4.08435,1.82519.63019.49616,6.02759,6.10151,6.03082,6.10492H54.185ZM55.556,60.131a14.16076,14.16076,0,0,1-1.31348-6.56739A14.16065,14.16065,0,0,1,55.556,46.99627a14.1615,14.1615,0,0,1,1.31342,6.56732A14.16161,14.16161,0,0,1,55.556,60.131Z"
     transform="translate(-16.61565 -17.12005)"
     id="path24" />
  <path
     class="cls-1"
     d="M95.81066,80.791a1.7381,1.7381,0,0,1,1.61718.88086l.81446-.60743a2.66725,2.66725,0,0,0-2.3418-1.13183c-1.32227,0-2.03516.74414-2.03516,1.626,0,1.10938.94141,1.36036,1.90625,1.51953.78321.13672,1.52735.25879,1.52735.88868,0,.47168-.37891.82129-1.08594.82129a1.99937,1.99937,0,0,1-1.7793-.91993l-.77539.64649a2.87256,2.87256,0,0,0,2.48633,1.13965c1.27539,0,2.0293-.69141,2.0293-1.67188,0-1.13965-1.00391-1.375-1.92383-1.543-.84375-.14355-1.51172-.25-1.51172-.86621C94.73839,81.15527,95.088,80.791,95.81066,80.791Z"
     transform="translate(-16.61565 -17.12005)"
     id="path26" />
  <polygon
     class="cls-1"
     points="86.877 67.326 86.779 67.896 86.672 67.318 85.767 64.195 85.023 64.195 84.095 67.326 83.974 67.881 83.883 67.326 83.154 64.195 82.205 64.195 83.283 68.45 84.424 68.45 85.289 65.494 85.388 65.031 85.494 65.487 86.322 68.45 87.425 68.45 88.609 64.195 87.675 64.195 86.877 67.326"
     id="polygon28" />
  <rect
     class="cls-1"
     x="89.44696"
     y="64.19538"
     width="0.92773"
     height="4.25488"
     id="rect30" />
  <path
     class="cls-1"
     d="M106.54894,79.46875a.56047.56047,0,0,0-.59961.60742.55267.55267,0,0,0,.59961.59278.55955.55955,0,0,0,.59961-.59278A.56742.56742,0,0,0,106.54894,79.46875Z"
     transform="translate(-16.61565 -17.12005)"
     id="path32" />
  <path
     class="cls-1"
     d="M109.64269,81.99121a1.49122,1.49122,0,0,1,1.32812.69922l.707-.60059a2.36414,2.36414,0,0,0-1.98242-.873c-1.06445,0-1.6875.585-1.6875,1.3291,0,.75976.5625,1.01855,1.33789,1.14062.78321.12891,1.43555.167,1.43555.60743,0,.30371-.25.59277-.85156.59277a1.64067,1.64067,0,0,1-1.41211-.707l-.66992.63086a2.49671,2.49671,0,0,0,2.06054.85156c1.0625,0,1.69336-.58594,1.69336-1.36816,0-.85059-.74414-1.04883-1.57226-1.16993-.72266-.10644-1.21485-.18261-1.21485-.57031C108.81456,82.25781,109.04894,81.99121,109.64269,81.99121Z"
     transform="translate(-16.61565 -17.12005)"
     id="path34" />
  <path
     class="cls-1"
     d="M114.02745,81.99121a1.49122,1.49122,0,0,1,1.32813.69922l.707-.60059a2.36415,2.36415,0,0,0-1.98242-.873c-1.06446,0-1.6875.585-1.6875,1.3291,0,.75976.5625,1.01855,1.33789,1.14062.7832.12891,1.43555.167,1.43555.60743,0,.30371-.25.59277-.85157.59277a1.64068,1.64068,0,0,1-1.41211-.707l-.66992.63086a2.49673,2.49673,0,0,0,2.06055.85156c1.0625,0,1.69336-.58594,1.69336-1.36816,0-.85059-.74414-1.04883-1.57227-1.16993-.72265-.10644-1.21484-.18261-1.21484-.57031C113.19933,82.25781,113.4337,81.99121,114.02745,81.99121Z"
     transform="translate(-16.61565 -17.12005)"
     id="path36" />
  <path
     class="cls-1"
     d="M121.66417,80.79883a1.6481,1.6481,0,0,1,1.67969,1.07129l.84375-.54a2.67221,2.67221,0,0,0-2.47656-1.38281,2.73689,2.73689,0,0,0-2.80469,2.99414,2.46244,2.46244,0,0,0,2.43164,2.70507,1.8573,1.8573,0,0,0,1.9375-1.47363l-.01562.6377v.75976h.9121v-2.9707h-2.75V83.291h1.82227a1.57414,1.57414,0,0,1-1.67187,1.542c-1.08594,0-1.7168-.79-1.7168-1.96778C119.85558,81.56641,120.57823,80.79883,121.66417,80.79883Z"
     transform="translate(-16.61565 -17.12005)"
     id="path38" />
  <path
     class="cls-1"
     d="M128.29113,83.39746c0,.919-.418,1.48145-1.07813,1.48145-.73633,0-.98828-.47071-.98828-1.208V81.31543h-.91992v2.60645c0,1.041.49414,1.73242,1.52734,1.73242a1.53717,1.53717,0,0,0,1.4668-1.09473v1.01074h.91992V81.31543h-.92773Z"
     transform="translate(-16.61565 -17.12005)"
     id="path40" />
  <path
     class="cls-1"
     d="M130.96691,79.46875a.56047.56047,0,0,0-.59961.60742.55267.55267,0,0,0,.59961.59278.55955.55955,0,0,0,.59961-.59278A.56742.56742,0,0,0,130.96691,79.46875Z"
     transform="translate(-16.61565 -17.12005)"
     id="path42" />
  <rect
     class="cls-1"
     x="113.86493"
     y="64.19538"
     width="0.92773"
     height="4.25488"
     id="rect44" />
  <path
     class="cls-1"
     d="M135.64073,82.166a1.42713,1.42713,0,0,0-1.42773-.9043,1.97332,1.97332,0,0,0-1.916,2.2041c0,1.43652.82813,2.1582,1.83985,2.1582a1.57336,1.57336,0,0,0,1.5039-.97265v.91894h.91993V79.52148h-.91993ZM134.463,84.86426c-.8125,0-1.22266-.53223-1.22266-1.41406,0-.874.4336-1.45118,1.23047-1.45118.86719,0,1.23828.6084,1.23828,1.43653C135.70909,84.25586,135.32238,84.86426,134.463,84.86426Z"
     transform="translate(-16.61565 -17.12005)"
     id="path46" />
  <path
     class="cls-1"
     d="M139.7755,81.23145a2.12955,2.12955,0,0,0-2.18164,2.23437,2.03531,2.03531,0,0,0,2.21094,2.18066,2.08171,2.08171,0,0,0,1.90039-1.01855l-.76758-.42481a1.308,1.308,0,0,1-2.44727-.50976h3.32227V83.374A1.957,1.957,0,0,0,139.7755,81.23145Zm-1.27734,1.88476a1.20443,1.20443,0,0,1,1.26953-1.125,1.06262,1.06262,0,0,1,1.14062,1.125Z"
     transform="translate(-16.61565 -17.12005)"
     id="path48" />
  <path
     class="cls-1"
     d="M148.4923,84.3623V82.751c0-.99512-.6543-1.51953-1.7168-1.51953a2.08221,2.08221,0,0,0-2.05273,1.33007l.82812.26563a1.16047,1.16047,0,0,1,1.18555-.86621c.63867,0,.875.27344.875.59277s-.25977.44824-1.01953.6084a4.40269,4.40269,0,0,0-1.42774.44824,1.05383,1.05383,0,0,0-.53906.97266c0,.65332.47852,1.06347,1.33789,1.06347a1.71368,1.71368,0,0,0,1.65625-1.10156c0,.77442.28125,1.09375.96484,1.09375a1.31981,1.31981,0,0,0,.63868-.15918v-.61523a.7814.7814,0,0,1-.30469.06054C148.629,84.9248,148.4923,84.7959,148.4923,84.3623Zm-.85157-.79a1.37678,1.37678,0,0,1-1.33007,1.38281c-.5,0-.75977-.19043-.75977-.52442,0-.44043.36524-.59277,1.125-.75976.5625-.12207.83594-.22754.96484-.40235Z"
     transform="translate(-16.61565 -17.12005)"
     id="path50" />
  <path
     class="cls-1"
     d="M152.41417,81.23145a1.535,1.535,0,0,0-1.51172,1.09472V81.31543h-.91992v4.25488h.91992V83.47363c0-.93457.4336-1.47461,1.11719-1.47461.75195,0,1.02539.47168,1.02539,1.208v2.36328h.92774V82.97168A1.53865,1.53865,0,0,0,152.41417,81.23145Z"
     transform="translate(-16.61565 -17.12005)"
     id="path52" />
  <path
     class="cls-1"
     d="M158.30284,82.166a1.42713,1.42713,0,0,0-1.42773-.9043,1.97332,1.97332,0,0,0-1.916,2.2041c0,1.43652.82813,2.1582,1.83985,2.1582a1.57336,1.57336,0,0,0,1.5039-.97265v.91894h.91993V79.52148h-.91993Zm-1.17773,2.69824c-.8125,0-1.22266-.53223-1.22266-1.41406,0-.874.4336-1.45118,1.23047-1.45118.86719,0,1.23828.6084,1.23828,1.43653C158.3712,84.25586,157.98448,84.86426,157.12511,84.86426Z"
     transform="translate(-16.61565 -17.12005)"
     id="path54" />
  <path
     class="cls-1"
     d="M164.26183,80.791a1.74119,1.74119,0,0,1,1.61914.88086l.8125-.60743a2.66161,2.66161,0,0,0-2.33984-1.13183c-1.32227,0-2.03711.74414-2.03711,1.626,0,1.10938.9414,1.36036,1.9082,1.51953.78125.13672,1.52734.25879,1.52734.88868,0,.47168-.38086.82129-1.08789.82129a1.99613,1.99613,0,0,1-1.77734-.91993l-.77539.64649a2.86885,2.86885,0,0,0,2.48437,1.13965c1.27735,0,2.0293-.69141,2.0293-1.67188,0-1.13965-1.00391-1.375-1.92188-1.543-.84375-.14355-1.51367-.25-1.51367-.86621C163.18956,81.15527,163.53917,80.791,164.26183,80.791Z"
     transform="translate(-16.61565 -17.12005)"
     id="path56" />
  <path
     class="cls-1"
     d="M169.61925,84.86426c-.84961,0-1.21484-.57813-1.21484-1.4209,0-.83594.40234-1.44434,1.21484-1.44434a1.04993,1.04993,0,0,1,1.10352,1.01856l.9414-.20508a1.86709,1.86709,0,0,0-2.02148-1.58105,2.08079,2.08079,0,0,0-2.17383,2.21191,2.021,2.021,0,0,0,2.15039,2.20312A1.95564,1.95564,0,0,0,171.672,84.043l-.93554-.19727C170.59972,84.47656,170.3048,84.86426,169.61925,84.86426Z"
     transform="translate(-16.61565 -17.12005)"
     id="path58" />
  <path
     class="cls-1"
     d="M174.56652,81.23145a2.08121,2.08121,0,0,0-2.17969,2.21191,2.04752,2.04752,0,0,0,2.17969,2.20312,2.20778,2.20778,0,0,0,0-4.415Zm0,3.63281c-.87305,0-1.23829-.57813-1.23829-1.4209,0-.83594.40235-1.44434,1.23829-1.44434.85156,0,1.23242.585,1.23242,1.44434C175.79894,84.27832,175.42589,84.86426,174.56652,84.86426Z"
     transform="translate(-16.61565 -17.12005)"
     id="path60" />
  <path
     class="cls-1"
     d="M180.69347,83.39746c0,.919-.418,1.48145-1.08008,1.48145-.73633,0-.98633-.47071-.98633-1.208V81.31543h-.91992v2.60645c0,1.041.49414,1.73242,1.52734,1.73242a1.53717,1.53717,0,0,0,1.4668-1.09473v1.01074h.91992V81.31543h-.92773Z"
     transform="translate(-16.61565 -17.12005)"
     id="path62" />
  <path
     class="cls-1"
     d="M184.27941,79.71191l-.85743.51661v1.08691h-.98046v.75977h.97265v2.14257c0,.94239.3711,1.42871,1.291,1.42871a1.69241,1.69241,0,0,0,.77539-.167v-.74511a1.26142,1.26142,0,0,1-.5625.12207c-.418,0-.63867-.19727-.63867-.74512V82.0752h1.20117v-.75977h-1.20117Z"
     transform="translate(-16.61565 -17.12005)"
     id="path64" />
  <polygon
     class="cls-1"
     points="174.998 67.212 174.884 67.6 174.779 67.204 173.213 62.903 171.951 62.903 171.951 68.45 172.855 68.45 172.855 64.491 172.81 63.693 173.039 64.483 174.504 68.45 175.242 68.45 176.724 64.483 176.951 63.655 176.906 64.491 176.906 68.45 177.802 68.45 177.802 62.903 176.586 62.911 174.998 67.212"
     id="polygon66" />
  <path
     class="cls-1"
     d="M197.65636,81.23145a2.08276,2.08276,0,0,0-2.18164,2.21191,2.048,2.048,0,0,0,2.18164,2.20312,2.20778,2.20778,0,0,0,0-4.415Zm0,3.63281c-.87305,0-1.23828-.57813-1.23828-1.4209,0-.83594.40234-1.44434,1.23828-1.44434.85156,0,1.23047.585,1.23047,1.44434C198.88683,84.27832,198.51573,84.86426,197.65636,84.86426Z"
     transform="translate(-16.61565 -17.12005)"
     id="path68" />
  <polygon
     class="cls-1"
     points="186.004 66.977 185.799 67.622 185.593 66.977 184.537 64.195 183.58 64.195 185.297 68.45 186.261 68.45 188.025 64.195 187.097 64.195 186.004 66.977"
     id="polygon70" />
  <path
     class="cls-1"
     d="M207.18566,81.23145a2.128,2.128,0,0,0-2.17969,2.23437,2.03435,2.03435,0,0,0,2.21094,2.18066,2.08393,2.08393,0,0,0,1.90039-1.01855l-.76758-.42481a1.308,1.308,0,0,1-2.44727-.50976h3.32032V83.374A1.95592,1.95592,0,0,0,207.18566,81.23145Zm-1.27539,1.88476a1.20324,1.20324,0,0,1,1.26953-1.125,1.06008,1.06008,0,0,1,1.13867,1.125Z"
     transform="translate(-16.61565 -17.12005)"
     id="path72" />
  <path
     class="cls-1"
     d="M215.40831,81.23145A1.55328,1.55328,0,0,0,213.92,82.2959a1.30743,1.30743,0,0,0-1.35351-1.06445,1.44941,1.44941,0,0,0-1.42774,1.0791v-.99512h-.91992v4.25488h.91992V83.47363c0-.93457.36524-1.47461,1.0332-1.47461.69922,0,.91211.45606.91211,1.19336v2.37793h.91993V83.458c0-.93457.36328-1.459,1.0332-1.459.69922,0,.91211.47168.91211,1.20118v2.37011h.918V82.96387C216.8673,81.93066,216.35948,81.23145,215.40831,81.23145Z"
     transform="translate(-16.61565 -17.12005)"
     id="path74" />
  <path
     class="cls-1"
     d="M220.03722,81.23145a2.128,2.128,0,0,0-2.17969,2.23437,2.03435,2.03435,0,0,0,2.21094,2.18066,2.08393,2.08393,0,0,0,1.90039-1.01855l-.76758-.42481a1.308,1.308,0,0,1-2.44726-.50976h3.32031V83.374A1.95592,1.95592,0,0,0,220.03722,81.23145Zm-1.27539,1.88476a1.20325,1.20325,0,0,1,1.26953-1.125,1.06007,1.06007,0,0,1,1.13867,1.125Z"
     transform="translate(-16.61565 -17.12005)"
     id="path76" />
  <path
     class="cls-1"
     d="M225.50206,81.23145a1.535,1.535,0,0,0-1.51172,1.09472V81.31543h-.91992v4.25488h.91992V83.47363c0-.93457.4336-1.47461,1.11719-1.47461.75195,0,1.02539.47168,1.02539,1.208v2.36328h.92774V82.97168A1.53865,1.53865,0,0,0,225.50206,81.23145Z"
     transform="translate(-16.61565 -17.12005)"
     id="path78" />
  <path
     class="cls-1"
     d="M230.73058,82.0752v-.75977h-1.20117V79.71191l-.85743.51661v1.08691h-.98046v.75977h.97265v2.14257c0,.94239.3711,1.42871,1.291,1.42871a1.69241,1.69241,0,0,0,.77539-.167v-.74511a1.26142,1.26142,0,0,1-.5625.12207c-.418,0-.63867-.19727-.63867-.74512V82.0752Z"
     transform="translate(-16.61565 -17.12005)"
     id="path80" />
  <path
     class="cls-1"
     d="M95.05675,55.207H96.3712a1.98077,1.98077,0,0,0,2.25-1.99023c-.00781-1.14746-.79785-1.86963-2.29492-1.86963H94.13v5.54736h.92676Zm0-3.00879H96.296c.91894,0,1.41308.334,1.41308,1.13965,0,.77539-.49414,1.15527-1.42089,1.15527H95.05675Z"
     transform="translate(-16.61565 -17.12005)"
     id="path82" />
  <path
     class="cls-1"
     d="M100.10363,56.89453h.873V53.39844h1.23145v-.75977h-1.23145v-.40234c0-.48633.12988-.66113.5625-.66113h.66113v-.7295h-.68359c-.91992,0-1.41308.34961-1.41308,1.43653v.35644H99.1837v.75977h.91993Z"
     transform="translate(-16.61565 -17.12005)"
     id="path84" />
  <path
     class="cls-1"
     d="M106.798,56.96289a1.30824,1.30824,0,0,0,.63867-.16016V56.1875a.77755.77755,0,0,1-.30468.06055c-.28809,0-.42481-.12891-.42481-.56153V54.0752c0-.99512-.6543-1.51954-1.71777-1.51954a2.08229,2.08229,0,0,0-2.05176,1.32911l.82812.2666a1.15973,1.15973,0,0,1,1.18555-.86621c.63867,0,.874.27343.874.59277,0,.31836-.25878.44824-1.01855.60742a4.43465,4.43465,0,0,0-1.42773.44824,1.05276,1.05276,0,0,0-.54.97266c0,.65332.47851,1.06445,1.33789,1.06445a1.71362,1.71362,0,0,0,1.65625-1.10254C105.83312,56.64355,106.11437,56.96289,106.798,56.96289Zm-2.27246-.68457c-.501,0-.75977-.18945-.75977-.52344,0-.4414.36524-.59277,1.125-.76074.5625-.12109.83594-.22754.96485-.40234v.30371A1.37681,1.37681,0,0,1,104.5255,56.27832Z"
     transform="translate(-16.61565 -17.12005)"
     id="path86" />
  <path
     class="cls-1"
     d="M109.80773,56.94727a1.57467,1.57467,0,0,0,1.50488-.97266v.91992h.91894V50.8457h-.91894v2.64453a1.42714,1.42714,0,0,0-1.42871-.90429,1.9723,1.9723,0,0,0-1.915,2.20312C107.96886,56.22559,108.797,56.94727,109.80773,56.94727Zm.335-3.624c.86621,0,1.23828.60742,1.23828,1.43555,0,.82129-.3877,1.42871-1.24609,1.42871-.81348,0-1.22364-.53223-1.22364-1.41309C108.91124,53.90039,109.34484,53.32324,110.14269,53.32324Z"
     transform="translate(-16.61565 -17.12005)"
     id="path88" />
  <path
     class="cls-1"
     d="M113.98839,51.99316a.56031.56031,0,0,0,.60059-.59277.56831.56831,0,0,0-.60059-.60791.56061.56061,0,0,0-.59961.60791A.55266.55266,0,0,0,113.98839,51.99316Z"
     transform="translate(-16.61565 -17.12005)"
     id="path90" />
  <rect
     class="cls-1"
     x="96.88641"
     y="35.51862"
     width="0.92773"
     height="4.25586"
     id="rect92" />
  <path
     class="cls-1"
     d="M116.62511,56.00488a1.53921,1.53921,0,0,0,1.47363.94239c1.02637,0,1.87012-.78223,1.87012-2.21094,0-1.47461-.82813-2.15039-1.80078-2.15039a1.59634,1.59634,0,0,0-1.53516.957V50.8457H115.713v6.04883h.91211Zm1.17773-2.68164c.80567,0,1.23145.53906,1.23145,1.43555,0,.86621-.40332,1.42871-1.21582,1.42871-.88184,0-1.26172-.59277-1.26172-1.4209C116.55675,53.95312,116.96691,53.32324,117.80284,53.32324Z"
     transform="translate(-16.61565 -17.12005)"
     id="path94" />
  <path
     class="cls-1"
     d="M122.97863,56.9707a2.08472,2.08472,0,0,0,1.90039-1.01855l-.76758-.42578a1.30761,1.30761,0,0,1-2.44727-.50879h3.32129v-.31934a1.956,1.956,0,0,0-2.03711-2.14258,2.128,2.128,0,0,0-2.18066,2.2334A2.03555,2.03555,0,0,0,122.97863,56.9707Zm-.03711-3.65527a1.0606,1.0606,0,0,1,1.13964,1.124H121.672A1.20373,1.20373,0,0,1,122.94152,53.31543Z"
     transform="translate(-16.61565 -17.12005)"
     id="path96" />
  <polygon
     class="cls-1"
     points="111.159 39.774 112.025 36.818 112.124 36.355 112.23 36.811 113.058 39.774 114.161 39.774 115.345 35.519 114.411 35.519 113.613 38.649 113.514 39.22 113.408 38.642 112.504 35.519 111.759 35.519 110.832 38.649 110.711 39.204 110.619 38.649 109.89 35.519 108.94 35.519 110.019 39.774 111.159 39.774"
     id="polygon98" />
  <path
     class="cls-1"
     d="M134.77355,56.9707a2.08471,2.08471,0,0,0,1.90039-1.01855l-.76758-.42578a1.30761,1.30761,0,0,1-2.44727-.50879h3.32129v-.31934a1.956,1.956,0,0,0-2.03711-2.14258,2.128,2.128,0,0,0-2.18066,2.2334A2.03555,2.03555,0,0,0,134.77355,56.9707Zm-.03711-3.65527a1.06061,1.06061,0,0,1,1.13965,1.124h-2.40918A1.20372,1.20372,0,0,1,134.73644,53.31543Z"
     transform="translate(-16.61565 -17.12005)"
     id="path100" />
  <path
     class="cls-1"
     d="M139.39464,56.9248a1.573,1.573,0,0,0,1.49707-.958v.51758c0,1.00976-.456,1.45117-1.22363,1.45117a1.27653,1.27653,0,0,1-1.21582-.65332l-.83594.47851a2.15881,2.15881,0,0,0,1.99121.98047,2.03784,2.03784,0,0,0,2.21094-2.32519V52.63867h-.91895v.874a1.42748,1.42748,0,0,0-1.44433-.92676,1.96878,1.96878,0,0,0-1.90723,2.19629C137.548,56.21,138.3839,56.9248,139.39464,56.9248Zm.32715-3.60156c.86621,0,1.23828.60742,1.23828,1.43555,0,.80566-.37207,1.40625-1.23144,1.40625-.8125,0-1.23829-.52442-1.23829-1.40625C138.49034,53.90039,138.92394,53.32324,139.72179,53.32324Z"
     transform="translate(-16.61565 -17.12005)"
     id="path102" />
  <path
     class="cls-1"
     d="M144.53917,56.97754a1.5362,1.5362,0,0,0,1.4668-1.09375v1.01074h.91992V52.63867h-.92773v2.082c0,.91992-.418,1.48242-1.07911,1.48242-.73632,0-.9873-.47167-.9873-1.209V52.63867h-.91992v2.60645C143.01183,56.28613,143.506,56.97754,144.53917,56.97754Z"
     transform="translate(-16.61565 -17.12005)"
     id="path104" />
  <path
     class="cls-1"
     d="M149.09972,54.79688c0-.93458.43359-1.47364,1.11719-1.47364.75195,0,1.02539.47071,1.02539,1.208v2.36328H152.17V54.2959a1.57735,1.57735,0,0,0-3.07031-.64649V52.63867h-.91895v4.25586h.91895Z"
     transform="translate(-16.61565 -17.12005)"
     id="path106" />
  <path
     class="cls-1"
     d="M155.005,56.9248a1.573,1.573,0,0,0,1.49707-.958v.51758c0,1.00976-.45605,1.45117-1.22363,1.45117a1.27653,1.27653,0,0,1-1.21582-.65332l-.83594.47851a2.15881,2.15881,0,0,0,1.99121.98047,2.03784,2.03784,0,0,0,2.21094-2.32519V52.63867h-.91894v.874a1.42749,1.42749,0,0,0-1.44434-.92676,1.96878,1.96878,0,0,0-1.90723,2.19629C153.15831,56.21,153.99425,56.9248,155.005,56.9248Zm.32715-3.60156c.86621,0,1.23828.60742,1.23828,1.43555,0,.80566-.37207,1.40625-1.23144,1.40625-.8125,0-1.23828-.52442-1.23828-1.40625C154.1007,53.90039,154.53429,53.32324,155.33214,53.32324Z"
     transform="translate(-16.61565 -17.12005)"
     id="path108" />
  <path
     class="cls-1"
     d="M162.86339,56.11133a1.999,1.999,0,0,1-1.77832-.919l-.77441.64551a2.86764,2.86764,0,0,0,2.48437,1.13965c1.27637,0,2.0293-.69141,2.0293-1.67188,0-1.13964-1.00391-1.375-1.92285-1.542-.84375-.14453-1.5127-.251-1.5127-.86621,0-.418.34961-.7832,1.07227-.7832a1.7404,1.7404,0,0,1,1.61816.88183l.81348-.60839a2.66516,2.66516,0,0,0-2.34082-1.13135c-1.32227,0-2.03614.74463-2.03614,1.62549,0,1.10937.94141,1.36035,1.90723,1.5205.78223.13672,1.52734.25782,1.52734.88868C163.9503,55.76172,163.57042,56.11133,162.86339,56.11133Z"
     transform="translate(-16.61565 -17.12005)"
     id="path110" />
  <path
     class="cls-1"
     d="M167.81847,56.9707a1.95612,1.95612,0,0,0,2.05176-1.60351l-.93457-.19824c-.13672.63085-.43262,1.01855-1.11719,1.01855-.85059,0-1.21582-.57715-1.21582-1.4209,0-.83594.40332-1.44336,1.21582-1.44336a1.04891,1.04891,0,0,1,1.10254,1.01758l.9414-.20508a1.86547,1.86547,0,0,0-2.0205-1.58008,2.0795,2.0795,0,0,0-2.17383,2.21094A2.02124,2.02124,0,0,0,167.81847,56.9707Z"
     transform="translate(-16.61565 -17.12005)"
     id="path112" />
  <path
     class="cls-1"
     d="M171.74816,54.79688c0-.93458.43261-1.47364,1.124-1.47364.74512,0,1.01855.47071,1.01855,1.208v2.36328h.91993V54.2959a1.52764,1.52764,0,0,0-1.543-1.74024,1.5661,1.5661,0,0,0-1.52735,1.10157V50.8457h-.91211v6.04883h.91993Z"
     transform="translate(-16.61565 -17.12005)"
     id="path114" />
  <polygon
     class="cls-1"
     points="161.212 39.774 162.078 36.818 162.176 36.355 162.283 36.811 163.111 39.774 164.214 39.774 165.398 35.519 164.464 35.519 163.666 38.649 163.567 39.22 163.461 38.642 162.556 35.519 161.812 35.519 160.884 38.649 160.763 39.204 160.672 38.649 159.943 35.519 158.993 35.519 160.072 39.774 161.212 39.774"
     id="polygon116" />
  <path
     class="cls-1"
     d="M184.67589,56.9707a2.08416,2.08416,0,0,0,1.89941-1.01855l-.76757-.42578a1.30761,1.30761,0,0,1-2.44727-.50879h3.32129v-.31934a1.956,1.956,0,0,0-2.03711-2.14258,2.128,2.128,0,0,0-2.18066,2.2334A2.03583,2.03583,0,0,0,184.67589,56.9707Zm-.03809-3.65527a1.0606,1.0606,0,0,1,1.13965,1.124h-2.40918A1.20373,1.20373,0,0,1,184.6378,53.31543Z"
     transform="translate(-16.61565 -17.12005)"
     id="path118" />
  <rect
     class="cls-1"
     x="170.91668"
     y="35.51862"
     width="0.92773"
     height="4.25586"
     id="rect120" />
  <path
     class="cls-1"
     d="M188.01866,51.99316a.56031.56031,0,0,0,.60059-.59277.56831.56831,0,0,0-.60059-.60791.56061.56061,0,0,0-.59961.60791A.55267.55267,0,0,0,188.01866,51.99316Z"
     transform="translate(-16.61565 -17.12005)"
     id="path122" />
  <polygon
     class="cls-1"
     points="176.525 38.977 173.798 38.977 176.487 36.286 176.487 35.519 172.901 35.519 172.901 36.316 175.538 36.316 172.855 38.999 172.855 39.774 176.525 39.774 176.525 38.977"
     id="polygon124" />
  <polygon
     class="cls-1"
     points="78.419 54.933 78.373 54.135 78.601 54.925 80.067 58.892 80.804 58.892 82.287 54.925 82.514 54.097 82.468 54.933 82.468 58.892 83.365 58.892 83.365 53.345 82.15 53.353 80.561 57.653 80.447 58.041 80.341 57.646 78.776 53.345 77.514 53.345 77.514 58.892 78.419 58.892 78.419 54.933"
     id="polygon126" />
  <path
     class="cls-1"
     d="M103.21886,71.67285a2.08172,2.08172,0,0,0-2.18066,2.21094,2.04806,2.04806,0,0,0,2.18066,2.2041,2.20778,2.20778,0,0,0,0-4.415Zm0,3.63281c-.87305,0-1.23828-.57812-1.23828-1.42187,0-.835.40234-1.44336,1.23828-1.44336.85156,0,1.23144.585,1.23144,1.44336C104.4503,74.71973,104.07823,75.30566,103.21886,75.30566Z"
     transform="translate(-16.61565 -17.12005)"
     id="path128" />
  <polygon
     class="cls-1"
     points="93.588 54.637 92.661 54.637 91.566 57.418 91.361 58.064 91.156 57.418 90.1 54.637 89.142 54.637 90.86 58.892 91.825 58.892 93.588 54.637"
     id="polygon130" />
  <path
     class="cls-1"
     d="M111.44249,69.91016a.56046.56046,0,0,0-.59961.60742.55266.55266,0,0,0,.59961.59277.56031.56031,0,0,0,.60059-.59277A.56817.56817,0,0,0,111.44249,69.91016Z"
     transform="translate(-16.61565 -17.12005)"
     id="path132" />
  <rect
     class="cls-1"
     x="94.34051"
     y="54.63678"
     width="0.92773"
     height="4.25488"
     id="rect134" />
  <path
     class="cls-1"
     d="M119.80089,76.01172V73.40527c0-1.0332-.50879-1.73242-1.459-1.73242a1.55449,1.55449,0,0,0-1.48926,1.06445,1.3064,1.3064,0,0,0-1.35254-1.06445,1.4497,1.4497,0,0,0-1.42871,1.0791v-.99511h-.91895v4.25488h.91895V73.915c0-.93457.36523-1.47461,1.0332-1.47461.69922,0,.91211.456.91211,1.19336v2.37793h.91992V73.89941c0-.93457.36426-1.459,1.03321-1.459.69921,0,.91211.4707.91211,1.20019v2.3711Z"
     transform="translate(-16.61565 -17.12005)"
     id="path136" />
  <path
     class="cls-1"
     d="M122.97081,71.67285a2.12876,2.12876,0,0,0-2.18066,2.23438,2.03511,2.03511,0,0,0,2.21191,2.18066,2.08232,2.08232,0,0,0,1.89942-1.01855l-.76758-.42481a1.308,1.308,0,0,1-2.44727-.50976h3.32129v-.31934A1.95644,1.95644,0,0,0,122.97081,71.67285Zm-1.27636,1.88477a1.20383,1.20383,0,0,1,1.26953-1.125,1.06135,1.06135,0,0,1,1.13965,1.125Z"
     transform="translate(-16.61565 -17.12005)"
     id="path138" />
  <path
     class="cls-1"
     d="M128.43566,71.67285a1.53614,1.53614,0,0,0-1.5127,1.09473V71.75684H126.004v4.25488h.91894V73.915c0-.93457.43359-1.47461,1.11719-1.47461.75195,0,1.02539.4707,1.02539,1.208v2.36328h.92773V73.41309A1.53846,1.53846,0,0,0,128.43566,71.67285Z"
     transform="translate(-16.61565 -17.12005)"
     id="path140" />
  <path
     class="cls-1"
     d="M133.81652,75.9209v-.74512a1.26716,1.26716,0,0,1-.5625.12207c-.418,0-.63868-.19824-.63868-.74512V72.5166h1.20118v-.75976h-1.20118V70.15332l-.85839.5166v1.08692h-.98047v.75976h.97265v2.14258c0,.94238.37207,1.42871,1.292,1.42871A1.6955,1.6955,0,0,0,133.81652,75.9209Z"
     transform="translate(-16.61565 -17.12005)"
     id="path142" />
  <path
     class="cls-1"
     d="M138.93077,73.88379a2.1775,2.1775,0,1,0-4.35449,0,2.04806,2.04806,0,0,0,2.18067,2.2041A2.08585,2.08585,0,0,0,138.93077,73.88379ZM136.757,75.30566c-.873,0-1.23829-.57812-1.23829-1.42187,0-.835.40235-1.44336,1.23829-1.44336.85156,0,1.23144.585,1.23144,1.44336C137.98839,74.71973,137.61632,75.30566,136.757,75.30566Z"
     transform="translate(-16.61565 -17.12005)"
     id="path144" />
  <path
     class="cls-1"
     d="M146.09777,74.42383c0-1.13965-1.00391-1.375-1.92286-1.543-.84375-.14356-1.51269-.25-1.51269-.86621,0-.418.34961-.78223,1.07226-.78223a1.73966,1.73966,0,0,1,1.61817.88086l.81348-.60742A2.66445,2.66445,0,0,0,143.8253,70.374c-1.32226,0-2.03613.74414-2.03613,1.626,0,1.10938.94141,1.36035,1.90723,1.51953.78223.13672,1.52734.25879,1.52734.88867,0,.47168-.37988.82129-1.08691.82129a1.99776,1.99776,0,0,1-1.77832-.91992l-.77442.64648a2.86764,2.86764,0,0,0,2.48438,1.13965C145.34484,76.0957,146.09777,75.4043,146.09777,74.42383Z"
     transform="translate(-16.61565 -17.12005)"
     id="path146" />
  <path
     class="cls-1"
     d="M148.93956,76.08789a1.9553,1.9553,0,0,0,2.05176-1.60351l-.93457-.19727c-.13672.63086-.43262,1.01855-1.11719,1.01855-.85058,0-1.21582-.57812-1.21582-1.42187,0-.835.40332-1.44336,1.21582-1.44336A1.04907,1.04907,0,0,1,150.0421,73.459l.94141-.20507a1.86545,1.86545,0,0,0-2.02051-1.58106,2.08,2.08,0,0,0-2.17383,2.21094A2.02079,2.02079,0,0,0,148.93956,76.08789Z"
     transform="translate(-16.61565 -17.12005)"
     id="path148" />
  <path
     class="cls-1"
     d="M153.8878,76.08789a2.20769,2.20769,0,1,0-2.18066-2.2041A2.04806,2.04806,0,0,0,153.8878,76.08789Zm0-3.64746c.85157,0,1.23145.585,1.23145,1.44336,0,.83594-.37207,1.42187-1.23145,1.42187-.873,0-1.23828-.57812-1.23828-1.42187C152.64952,73.04883,153.05187,72.44043,153.8878,72.44043Z"
     transform="translate(-16.61565 -17.12005)"
     id="path150" />
  <path
     class="cls-1"
     d="M159.86046,73.83887c0,.91894-.418,1.48144-1.0791,1.48144-.73633,0-.98731-.4707-.98731-1.208V71.75684h-.91992v2.60644c0,1.041.49414,1.73242,1.52735,1.73242a1.53715,1.53715,0,0,0,1.46679-1.09472v1.01074h.91993V71.75684h-.92774Z"
     transform="translate(-16.61565 -17.12005)"
     id="path152" />
  <path
     class="cls-1"
     d="M162.58214,74.65918c0,.94238.37207,1.42871,1.292,1.42871a1.69544,1.69544,0,0,0,.77539-.167v-.74512a1.2671,1.2671,0,0,1-.5625.12207c-.418,0-.63867-.19824-.63867-.74512V72.5166h1.20117v-.75976h-1.20117V70.15332l-.8584.5166v1.08692h-.98047v.75976h.97266Z"
     transform="translate(-16.61565 -17.12005)"
     id="path154" />
  <path
     class="cls-1"
     d="M169.41515,71.23242a1.73964,1.73964,0,0,1,1.61816.88086l.81348-.60742A2.66443,2.66443,0,0,0,169.506,70.374c-1.32227,0-2.03613.74414-2.03613,1.626,0,1.10938.9414,1.36035,1.90722,1.51953.78223.13672,1.52735.25879,1.52735.88867,0,.47168-.37989.82129-1.08692.82129a1.99776,1.99776,0,0,1-1.77832-.91992l-.77539.64648a2.87068,2.87068,0,0,0,2.48535,1.13965c1.27637,0,2.0293-.6914,2.0293-1.67187,0-1.13965-1.00391-1.375-1.92285-1.543-.84375-.14356-1.5127-.25-1.5127-.86621C168.34288,71.59668,168.69249,71.23242,169.41515,71.23242Z"
     transform="translate(-16.61565 -17.12005)"
     id="path156" />
  <polygon
     class="cls-1"
     points="158.149 57.418 157.944 58.064 157.739 57.418 156.683 54.637 155.725 54.637 157.443 58.892 158.408 58.892 160.171 54.637 159.244 54.637 158.149 57.418"
     id="polygon158" />
  <rect
     class="cls-1"
     x="160.92352"
     y="54.63678"
     width="0.92773"
     height="4.25488"
     id="rect160" />
  <path
     class="cls-1"
     d="M178.0255,71.11035a.56031.56031,0,0,0,.60059-.59277.56817.56817,0,0,0-.60059-.60742.56046.56046,0,0,0-.59961.60742A.55266.55266,0,0,0,178.0255,71.11035Z"
     transform="translate(-16.61565 -17.12005)"
     id="path162" />
  <polygon
     class="cls-1"
     points="166.493 54.637 162.907 54.637 162.907 55.435 165.544 55.435 162.861 58.117 162.861 58.892 166.531 58.892 166.531 58.094 163.803 58.094 166.493 55.404 166.493 54.637"
     id="polygon164" />
  <polygon
     class="cls-1"
     points="170.909 55.404 170.909 54.637 167.323 54.637 167.323 55.435 169.96 55.435 167.277 58.117 167.277 58.892 170.947 58.892 170.947 58.094 168.219 58.094 170.909 55.404"
     id="polygon166" />
  <path
     class="cls-1"
     d="M190.54894,76.08789a2.08284,2.08284,0,0,0,1.90039-1.01855l-.76758-.42481a1.308,1.308,0,0,1-2.44727-.50976h3.32129v-.31934a1.95644,1.95644,0,0,0-2.03711-2.14258,2.12876,2.12876,0,0,0-2.18066,2.23438A2.03483,2.03483,0,0,0,190.54894,76.08789Zm-.03711-3.65527a1.06135,1.06135,0,0,1,1.13965,1.125H189.2423A1.20383,1.20383,0,0,1,190.51183,72.43262Z"
     transform="translate(-16.61565 -17.12005)"
     id="path168" />
  <path
     class="cls-1"
     d="M196.38683,71.86328a1.47076,1.47076,0,0,0-.73731-.168c-.623,0-.9873.34278-1.17773,1.08692V71.75684h-.91895v4.25488h.91895v-2.1582c0-.89649.40332-1.33692.93457-1.33692a1.29553,1.29553,0,0,1,.72168.18945Z"
     transform="translate(-16.61565 -17.12005)"
     id="path170" />
  <path
     class="cls-1"
     d="M196.66027,73.88379a2.04806,2.04806,0,0,0,2.18066,2.2041,2.20769,2.20769,0,1,0-2.18066-2.2041Zm3.41211,0c0,.83594-.37208,1.42187-1.23145,1.42187-.873,0-1.23828-.57812-1.23828-1.42187,0-.835.40234-1.44336,1.23828-1.44336C199.69249,72.44043,200.07238,73.02539,200.07238,73.88379Z"
     transform="translate(-16.61565 -17.12005)"
     id="path172" />
  <polygon
     class="cls-1"
     points="80.561 48.095 80.447 48.482 80.342 48.087 78.776 43.786 77.515 43.786 77.515 49.333 78.419 49.333 78.419 45.374 78.373 44.576 78.602 45.366 80.067 49.333 80.805 49.333 82.287 45.366 82.515 44.538 82.469 45.374 82.469 49.333 83.365 49.333 83.365 43.786 82.15 43.794 80.561 48.095"
     id="polygon174" />
  <path
     class="cls-1"
     d="M103.21913,62.11426a2.082,2.082,0,0,0-2.18066,2.21191,2.04779,2.04779,0,0,0,2.18066,2.20313,2.20778,2.20778,0,0,0,0-4.415Zm0,3.63281c-.873,0-1.23828-.57812-1.23828-1.4209,0-.83594.40235-1.44433,1.23828-1.44433.85157,0,1.23145.585,1.23145,1.44433C104.45058,65.16113,104.07851,65.74707,103.21913,65.74707Z"
     transform="translate(-16.61565 -17.12005)"
     id="path176" />
  <path
     class="cls-1"
     d="M109.34413,64.28027c0,.91895-.418,1.48145-1.0791,1.48145-.73633,0-.9873-.4707-.9873-1.208V62.19824h-.91993v2.60645c0,1.041.49415,1.73242,1.52735,1.73242a1.53716,1.53716,0,0,0,1.4668-1.09473v1.01074h.91992V62.19824h-.92774Z"
     transform="translate(-16.61565 -17.12005)"
     id="path178" />
  <polygon
     class="cls-1"
     points="98.847 45.078 97.92 45.078 96.825 47.859 96.62 48.505 96.415 47.859 95.359 45.078 94.401 45.078 96.119 49.333 97.084 49.333 98.847 45.078"
     id="polygon180" />
  <path
     class="cls-1"
     d="M118.16054,62.11426a2.12876,2.12876,0,0,0-2.18067,2.23437,2.03512,2.03512,0,0,0,2.21192,2.18067,2.08228,2.08228,0,0,0,1.89941-1.01856l-.76758-.4248a1.308,1.308,0,0,1-2.44726-.50977h3.32129v-.31933A1.95644,1.95644,0,0,0,118.16054,62.11426ZM116.88417,63.999a1.20385,1.20385,0,0,1,1.26953-1.125,1.06134,1.06134,0,0,1,1.13965,1.125Z"
     transform="translate(-16.61565 -17.12005)"
     id="path182" />
  <path
     class="cls-1"
     d="M126.92323,64.083v2.37011h.91895V63.84668c0-1.0332-.50879-1.73242-1.459-1.73242a1.55446,1.55446,0,0,0-1.48926,1.06445,1.3064,1.3064,0,0,0-1.35254-1.06445,1.4497,1.4497,0,0,0-1.42871,1.0791v-.99512h-.91895v4.25488h.91895V64.35645c0-.93457.36523-1.47461,1.0332-1.47461.69922,0,.91211.45605.91211,1.19336v2.37792h.91992v-2.1123c0-.93457.36426-1.459,1.0332-1.459C126.71034,62.88184,126.92323,63.35352,126.92323,64.083Z"
     transform="translate(-16.61565 -17.12005)"
     id="path184" />
  <path
     class="cls-1"
     d="M128.83144,64.34863a2.03511,2.03511,0,0,0,2.21191,2.18067,2.08231,2.08231,0,0,0,1.89942-1.01856l-.76758-.4248a1.308,1.308,0,0,1-2.44727-.50977h3.32129v-.31933a1.95644,1.95644,0,0,0-2.03711-2.14258A2.12875,2.12875,0,0,0,128.83144,64.34863Zm3.31347-.34961h-2.40918a1.20385,1.20385,0,0,1,1.26954-1.125A1.06134,1.06134,0,0,1,132.14491,63.999Z"
     transform="translate(-16.61565 -17.12005)"
     id="path186" />
  <path
     class="cls-1"
     d="M134.96425,64.35645c0-.93457.43359-1.47461,1.11719-1.47461.752,0,1.02539.47168,1.02539,1.208v2.36328h.92773V63.85449a1.57718,1.57718,0,0,0-3.07031-.64551V62.19824h-.91895v4.25488h.91895Z"
     transform="translate(-16.61565 -17.12005)"
     id="path188" />
  <path
     class="cls-1"
     d="M141.8578,62.958v-.75977h-1.20117V60.59473l-.8584.5166v1.08691h-.98046V62.958h.97265v2.14258c0,.94238.37207,1.42871,1.292,1.42871a1.69531,1.69531,0,0,0,.77539-.167v-.74511a1.26723,1.26723,0,0,1-.5625.12207c-.418,0-.63867-.19727-.63867-.74512V62.958Z"
     transform="translate(-16.61565 -17.12005)"
     id="path190" />
  <path
     class="cls-1"
     d="M146.62343,61.67383a1.73964,1.73964,0,0,1,1.61816.88086l.81348-.60742a2.66443,2.66443,0,0,0-2.34082-1.13184c-1.32227,0-2.03613.74414-2.03613,1.626,0,1.10937.9414,1.36035,1.90722,1.51953.78223.13672,1.52735.25879,1.52735.88867,0,.47168-.37989.82129-1.08692.82129a1.99776,1.99776,0,0,1-1.77832-.91992l-.77441.64648a2.86766,2.86766,0,0,0,2.48437,1.13965c1.27637,0,2.0293-.69141,2.0293-1.67188,0-1.13964-1.00391-1.375-1.92285-1.543-.84375-.14356-1.5127-.25-1.5127-.86622C145.55116,62.03809,145.90077,61.67383,146.62343,61.67383Z"
     transform="translate(-16.61565 -17.12005)"
     id="path192" />
  <path
     class="cls-1"
     d="M151.82851,62.88184a1.04907,1.04907,0,0,1,1.10254,1.01855l.9414-.20508a1.86543,1.86543,0,0,0-2.0205-1.581,2.08027,2.08027,0,0,0-2.17383,2.21191,2.0205,2.0205,0,0,0,2.15039,2.20313,1.9553,1.9553,0,0,0,2.05176-1.60352l-.93457-.19726c-.13672.63086-.43262,1.01855-1.11719,1.01855-.85059,0-1.21582-.57812-1.21582-1.4209C150.61269,63.49023,151.016,62.88184,151.82851,62.88184Z"
     transform="translate(-16.61565 -17.12005)"
     id="path194" />
  <path
     class="cls-1"
     d="M154.59511,64.32617a2.04779,2.04779,0,0,0,2.18066,2.20313,2.20769,2.20769,0,1,0-2.18066-2.20313Zm3.41211,0c0,.835-.37207,1.4209-1.23145,1.4209-.873,0-1.23828-.57812-1.23828-1.4209,0-.83594.40235-1.44433,1.23828-1.44433C157.62734,62.88184,158.00722,63.4668,158.00722,64.32617Z"
     transform="translate(-16.61565 -17.12005)"
     id="path196" />
  <path
     class="cls-1"
     d="M161.29042,66.53711a1.53717,1.53717,0,0,0,1.4668-1.09473v1.01074h.91992V62.19824h-.92773v2.082c0,.91895-.418,1.48145-1.07911,1.48145-.73632,0-.9873-.4707-.9873-1.208V62.19824h-.91992v2.60645C159.76308,65.8457,160.25722,66.53711,161.29042,66.53711Z"
     transform="translate(-16.61565 -17.12005)"
     id="path198" />
  <path
     class="cls-1"
     d="M164.49745,62.958h.97266v2.14258c0,.94238.37207,1.42871,1.292,1.42871a1.69531,1.69531,0,0,0,.77539-.167v-.74511a1.26723,1.26723,0,0,1-.5625.12207c-.418,0-.63867-.19727-.63867-.74512V62.958h1.20117v-.75977h-1.20117V60.59473l-.8584.5166v1.08691h-.98047Z"
     transform="translate(-16.61565 -17.12005)"
     id="path200" />
  <path
     class="cls-1"
     d="M177.75185,66.5293a2.08228,2.08228,0,0,0,1.89941-1.01856l-.76758-.4248a1.308,1.308,0,0,1-2.44726-.50977h3.32129v-.31933a1.95644,1.95644,0,0,0-2.03711-2.14258,2.12876,2.12876,0,0,0-2.18067,2.23437A2.03512,2.03512,0,0,0,177.75185,66.5293Zm-.03809-3.65528a1.06135,1.06135,0,0,1,1.13965,1.125h-2.40918A1.20385,1.20385,0,0,1,177.71376,62.874Z"
     transform="translate(-16.61565 -17.12005)"
     id="path202" />
  <path
     class="cls-1"
     d="M182.58583,62.44141c0,1.10937.94141,1.36035,1.90723,1.51953.78223.13672,1.52734.25879,1.52734.88867,0,.47168-.37988.82129-1.08691.82129a1.99776,1.99776,0,0,1-1.77832-.91992l-.77442.64648a2.86767,2.86767,0,0,0,2.48438,1.13965c1.27637,0,2.0293-.69141,2.0293-1.67188,0-1.13964-1.00391-1.375-1.92286-1.543-.84375-.14356-1.51269-.25-1.51269-.86622,0-.418.34961-.78222,1.07226-.78222a1.73966,1.73966,0,0,1,1.61817.88086l.81348-.60742a2.66447,2.66447,0,0,0-2.34083-1.13184C183.2997,60.81543,182.58583,61.55957,182.58583,62.44141Z"
     transform="translate(-16.61565 -17.12005)"
     id="path204" />
  <path
     class="cls-1"
     d="M191.81923,66.45312V62.19824h-.92773v2.082c0,.91895-.418,1.48145-1.07911,1.48145-.73632,0-.9873-.4707-.9873-1.208V62.19824h-.91992v2.60645c0,1.041.49414,1.73242,1.52734,1.73242a1.53715,1.53715,0,0,0,1.4668-1.09473v1.01074Z"
     transform="translate(-16.61565 -17.12005)"
     id="path206" />
  <path
     class="cls-1"
     d="M193.5663,61.55176a.56032.56032,0,0,0,.60059-.59278.56818.56818,0,0,0-.60059-.60742.56047.56047,0,0,0-.59961.60742A.55267.55267,0,0,0,193.5663,61.55176Z"
     transform="translate(-16.61565 -17.12005)"
     id="path208" />
  <rect
     class="cls-1"
     x="176.46432"
     y="45.07819"
     width="0.92773"
     height="4.25488"
     id="rect210" />
  <path
     class="cls-1"
     d="M196.94814,65.76953a1.64119,1.64119,0,0,1-1.41309-.707l-.66894.63086a2.49463,2.49463,0,0,0,2.05957.85156c1.06445,0,1.69431-.58594,1.69431-1.36816,0-.85059-.74412-1.04883-1.57224-1.16992-.72266-.10645-1.21582-.18262-1.21582-.57032,0-.2959.23535-.5625.82812-.5625a1.49445,1.49445,0,0,1,1.33008.69922l.70605-.60058a2.366,2.366,0,0,0-1.98339-.873c-1.06348,0-1.68653.585-1.68653,1.3291,0,.75977.5625,1.01856,1.33692,1.14063.7832.1289,1.43652.167,1.43652.60742C197.7997,65.48047,197.54872,65.76953,196.94814,65.76953Z"
     transform="translate(-16.61565 -17.12005)"
     id="path212" />
  <path
     class="cls-1"
     d="M201.33388,65.76953a1.6412,1.6412,0,0,1-1.41309-.707l-.66894.63086a2.49465,2.49465,0,0,0,2.05957.85156c1.06347,0,1.69433-.58594,1.69433-1.36816,0-.85059-.74414-1.04883-1.57226-1.16992-.72266-.10645-1.21582-.18262-1.21582-.57032,0-.2959.23535-.5625.82812-.5625a1.49172,1.49172,0,0,1,1.3291.69922l.707-.60058a2.366,2.366,0,0,0-1.9834-.873c-1.06348,0-1.68653.585-1.68653,1.3291,0,.75977.5625,1.01856,1.33692,1.14063.7832.1289,1.43652.167,1.43652.60742C202.18544,65.48047,201.93446,65.76953,201.33388,65.76953Z"
     transform="translate(-16.61565 -17.12005)"
     id="path214" />
  <path
     class="cls-1"
     d="M207.93056,65.51074l-.76758-.4248a1.308,1.308,0,0,1-2.44727-.50977H208.037v-.31933a1.95644,1.95644,0,0,0-2.03711-2.14258,2.12875,2.12875,0,0,0-2.18066,2.23437,2.03512,2.03512,0,0,0,2.21191,2.18067A2.0823,2.0823,0,0,0,207.93056,65.51074Zm-1.9375-2.63672a1.06135,1.06135,0,0,1,1.13965,1.125h-2.40918A1.20383,1.20383,0,0,1,205.99306,62.874Z"
     transform="translate(-16.61565 -17.12005)"
     id="path216" />
  <path
     class="cls-1"
     d="M172.287,66.50687a1.57468,1.57468,0,0,0,1.50489-.97266v.91992h.91894V60.4053h-.91894v2.64453a1.42715,1.42715,0,0,0-1.42871-.90429,1.9723,1.9723,0,0,0-1.915,2.20312C170.44814,65.78519,171.27626,66.50687,172.287,66.50687Zm.335-3.624c.86622,0,1.23829.60742,1.23829,1.43555,0,.82129-.3877,1.42871-1.2461,1.42871-.81347,0-1.22363-.53223-1.22363-1.41309C171.39052,63.46,171.82411,62.88284,172.622,62.88284Z"
     transform="translate(-16.61565 -17.12005)"
     id="path218" />
</svg>
